<svg version="1.0" xmlns="http://www.w3.org/2000/svg" viewBox="0 0 256.000000 256.000000" preserveAspectRatio="xMidYMid meet">
<g transform="translate(0.000000,256.000000) scale(0.100000,-0.100000)" stroke="none">
<path d="M1967 2289 c-128 -19 -259 -126 -453 -369 -162 -204 -421 -608 -579
-905 -21 -38 -41 -74 -45 -78 -4 -4 -66 57 -139 137 l-132 145 -62 -39 c-34
-22 -73 -47 -87 -57 -13 -10 -43 -29 -65 -43 -63 -38 -125 -84 -125 -93 0 -4
64 -85 142 -180 147 -178 216 -271 280 -376 l37 -61 167 2 167 3 67 165 c94
234 174 391 367 717 211 358 361 560 585 789 148 151 159 171 115 212 -23 22
-106 43 -156 41 -14 -1 -52 -5 -84 -10z"/>
</g>
</svg>
