<svg version="1.0" xmlns="http://www.w3.org/2000/svg" viewBox="0 0 256.000000 256.000000" preserveAspectRatio="xMidYMid meet">
<g transform="translate(0.000000,256.000000) scale(0.100000,-0.100000)" stroke="none">
<path d="M1967 2289 c-87 -13 -169 -62 -267 -159 -160 -158 -320 -374 -547
-740 -97 -157 -243 -414 -243 -428 0 -5 -6 -15 -14 -21 -11 -9 -40 17 -145
133 l-132 145 -169 -112 c-93 -62 -170 -115 -170 -120 0 -4 51 -68 113 -143
174 -211 221 -272 284 -374 l59 -95 169 0 168 0 66 165 c66 163 150 339 238
494 285 504 456 747 710 1007 154 157 164 176 120 217 -23 22 -106 43 -156 41
-14 -1 -52 -5 -84 -10z m227 -38 c14 -14 26 -31 26 -39 0 -9 -66 -83 -148
-166 -204 -209 -355 -412 -559 -751 -180 -300 -308 -552 -398 -783 l-48 -122
-165 2 -166 3 -62 100 c-35 55 -133 185 -218 289 -86 104 -156 192 -156 196 0
4 73 57 161 116 l161 108 26 -29 c80 -94 236 -265 242 -265 3 0 16 21 29 47
76 156 371 638 501 818 96 132 257 322 322 379 113 100 184 127 330 123 87 -2
99 -4 122 -26z"/>
</g>
</svg>
