<svg xmlns="http://www.w3.org/2000/svg" viewBox="0 0 100 100"><path d="M87.52466,5.21289a.72688.72688,0,0,0-1.028.00006L67.88281,23.827l-8.67059-8.67078a.55734.55734,0,0,0-.95142.3941v25.4433a.74585.74585,0,0,0,.74585.74585H84.44958a.55729.55729,0,0,0,.39411-.95135l-8.67053-8.6706,18.614-18.61419a.727.727,0,0,0-.00006-1.02808Z"></path><path d="M12.47522,94.787a.727.727,0,0,0,1.02808.00006l18.61419-18.614L40.788,84.84363a.55727.55727,0,0,0,.95136-.39405V59.00665a.74585.74585,0,0,0-.74585-.74585l-25.44324.00006a.55726.55726,0,0,0-.394.9513L23.827,67.88275,5.21289,86.49658a.727.727,0,0,0,0,1.02808Z"></path></svg>