<?xml version="1.0" encoding="UTF-8" standalone="no"?>
<!-- Created with Inkscape (http://www.inkscape.org/) -->

<svg
   viewBox="0 0 47.625 47.625"
   version="1.1"
   id="svg5"
   inkscape:version="1.1 (c4e8f9e, 2021-05-24)"
   sodipodi:docname="quizmasterlogo.svg"
   xmlns:inkscape="http://www.inkscape.org/namespaces/inkscape"
   xmlns:sodipodi="http://sodipodi.sourceforge.net/DTD/sodipodi-0.dtd"
   xmlns="http://www.w3.org/2000/svg"
   xmlns:svg="http://www.w3.org/2000/svg">
  <g
     id="g846"
     transform="matrix(1,0,0,0.998,0,1.9049836e-4)">
    <path
       id="path50211"
       style="stroke-width:0.336663;stroke-dasharray:0.336663, 1.00999"
       d="M 47.529749,23.907749 A 23.717249,23.8125 0 0 1 23.8125,47.720249 23.717249,23.8125 0 0 1 0.09525108,23.907749 23.717249,23.8125 0 0 1 23.8125,0.09524918 23.717249,23.8125 0 0 1 47.529749,23.907749 Z" />
    <g
       aria-label="?"
       transform="matrix(1.090472,-0.73269604,0.70537566,1.1035785,-48.451558,-17.333881)"
       id="text48372"
       style="font-size:40px;line-height:1.25;font-family:'Noto Sans Modi';-inkscape-font-specification:'Noto Sans Modi';white-space:pre;shape-inside:url(#rect48374);fill:#808000">
      <path
         d="m 40.148437,50.967822 q 0,1.914063 -0.683593,3.417969 -0.683594,1.484375 -1.796875,2.636719 -1.09375,1.113281 -2.519532,2.089843 -1.425781,0.976563 -3.027343,1.894532 v 4.394531 H 28.625 v -5.957031 q 1.269531,-0.722657 2.734375,-1.582032 1.484375,-0.859375 2.421875,-1.738281 1.132812,-1.015625 1.757812,-2.089844 0.625,-1.09375 0.625,-2.773437 0,-2.207031 -1.503906,-3.28125 -1.484375,-1.09375 -3.847656,-1.09375 -2.109375,0 -4.003906,0.664062 -1.875,0.664063 -2.96875,1.347657 h -0.195313 v -3.984375 q 1.367188,-0.527344 3.457031,-0.9375 2.109375,-0.429688 3.984375,-0.429688 4.199219,0 6.621094,2.050781 2.441406,2.03125 2.441406,5.371094 z m -7.714843,22.246094 h -3.984375 v -4.121094 h 3.984375 z"
         id="path883" />
    </g>
    <g
       aria-label="Q"
       transform="matrix(0.41601186,0,0,0.3591785,-2.9401277,-7.757851)"
       id="text34364"
       style="font-size:96px;line-height:1.25;font-family:'Noto Sans Modi';-inkscape-font-specification:'Noto Sans Modi';white-space:pre;shape-inside:url(#rect34366);fill:#ffaaaa">
      <path
         d="m 93.945312,122.69309 q -2.8125,0.70312 -5.578125,0.98437 -2.71875,0.32813 -5.578125,0.32813 -8.15625,0 -13.125,-4.5 -4.921875,-4.45313 -5.34375,-12.79688 -1.125,0.1875 -2.203125,0.23438 -1.03125,0.0937 -2.015625,0.0937 -7.359375,0 -13.40625,-2.4375 -6,-2.4375 -10.21875,-7.07813 -4.21875,-4.640625 -6.515625,-11.390625 -2.25,-6.75 -2.25,-15.421875 0,-8.53125 2.25,-15.28125 2.25,-6.796875 6.5625,-11.625 4.125,-4.59375 10.21875,-7.03125 6.140625,-2.4375 13.359375,-2.4375 7.5,0 13.453125,2.484375 6,2.4375 10.171875,6.984375 4.265625,4.6875 6.515625,11.484375 2.296875,6.796875 2.296875,15.421875 0,12.796875 -5.25,21.5625 -5.203125,8.76563 -14.015625,12.28125 0.1875,5.34375 2.53125,8.29688 2.34375,2.95312 8.53125,2.95312 1.921875,0 4.546875,-0.60937 2.671875,-0.5625 3.796875,-1.03125 h 1.265625 z m -11.0625,-51.98438 q 0,-13.59375 -6.09375,-20.953125 -6.09375,-7.40625 -16.640625,-7.40625 -10.640625,0 -16.734375,7.40625 -6.046875,7.359375 -6.046875,20.953125 0,13.734375 6.1875,21.046875 6.1875,7.265625 16.59375,7.265625 10.40625,0 16.546875,-7.265625 6.1875,-7.3125 6.1875,-21.046875 z"
         id="path886" />
    </g>
  </g>
</svg>
