<svg version="1.1" xmlns="http://www.w3.org/2000/svg" xmlns:xlink="http://www.w3.org/1999/xlink" preserveAspectRatio="xMidYMid meet" class="" viewBox="88.93 177.7 462.13 124.6">
   <g class="logo-container-box logoContainerBox" transform="scale(0.99) translate(3.2323003441396168,2.4242424242424363)">
      <g class="containerBody" transform="scale(0.8389719017759053) translate(93.24422031450626,46.064399881723205)">
         <g class="sampleIconBox" transform="scale(1) translate(0,0)">
            <g class="sampleIcons_1" transform="scale(0.3488371597876034) translate(-12.333260599772132,432.00009765625)">
               <g>
                  <g>
                     <g>
                        <g>
                           <path d="M370.99,471c-2.091,0-4.101-0.641-5.801-1.86l-140-100c-2.18-1.56-3.61-3.859-4.05-6.5c-0.44-2.63,0.17-5.28,1.72-7.45     c1.88-2.63,4.92-4.189,8.15-4.189c2.09,0,4.1,0.64,5.8,1.859l140,100c2.181,1.551,3.62,3.86,4.05,6.5     c0.44,2.631-0.17,5.28-1.72,7.45C377.27,469.43,374.22,471,370.99,471z"></path>
                        </g>
                        <g>
                           <path d="M220.99,171c-1.97,0-3.89-0.58-5.54-1.68c-2.22-1.48-3.73-3.74-4.26-6.36c-0.52-2.62,0.01-5.28,1.49-7.51l20-30     c1.86-2.79,4.97-4.45,8.33-4.45c1.97,0,3.89,0.58,5.54,1.68c4.58,3.06,5.83,9.28,2.77,13.87l-20,30     C227.46,169.34,224.35,171,220.99,171z"></path>
                        </g>
                        <g>
                           <path d="M228.59,471c-5.52,0-10-4.49-10-10c0-5.521,4.48-10,10-10H361V351c0-2.63,1.069-5.21,2.93-7.07S368.37,341,371,341h50     v-80c0-2.63,1.069-5.21,2.93-7.07c1.86-1.86,4.44-2.93,7.07-2.93h20v-57.59c0-5.51,4.49-10,10-10s10,4.49,10,10V261     c0,2.63-1.07,5.21-2.931,7.069C466.21,269.93,463.63,271,461,271h-20v80c0,2.63-1.07,5.21-2.931,7.069     C436.21,359.93,433.63,361,431,361h-50v100c0,2.63-1.07,5.21-2.931,7.069C376.21,469.93,373.63,471,371,471H228.6H228.59z      M191,458.59c-5.51,0-10-4.49-10-10c0-5.521,4.49-10,10-10c5.51,0,10,4.479,10,10C201,454.1,196.51,458.59,191,458.59z      M191,408.59c-5.51,0-10-4.49-10-10V260.5c0-2.811,1.2-5.52,3.29-7.41c2.08-1.89,4.89-2.81,7.7-2.54     c2.98,0.3,6.01,0.45,9.01,0.45c24.03,0,46.63-9.37,63.64-26.36C281.63,207.63,291,185.03,291,161     c0.01-33.14-18.15-63.52-47.38-79.29c-3.06-1.65-5.07-4.84-5.24-8.32s1.53-6.85,4.42-8.79c23.04-15.44,50.08-23.6,78.18-23.6     h10.051c10.93,0,21.8,1.24,32.319,3.7c10.24,2.39,20.2,5.94,29.62,10.55c9.26,4.53,18.03,10.11,26.061,16.58     c7.989,6.43,15.27,13.75,21.649,21.77c1.41,1.77,2.16,3.9,2.17,6.16c0.021,3.09-1.359,5.97-3.77,7.89     c-1.79,1.43-3.94,2.18-6.221,2.18c-3.069,0-5.92-1.38-7.829-3.78C402.229,77.43,367.96,61.01,331,61h-10     c-18.88,0-36.88,4.17-53.5,12.37c6.58,5,12.6,10.75,17.91,17.09c5.35,6.4,9.97,13.4,13.729,20.81     c3.83,7.55,6.78,15.54,8.771,23.76c2.05,8.45,3.09,17.19,3.09,25.97c0,14.85-2.91,29.26-8.65,42.82     c-5.54,13.1-13.47,24.86-23.569,34.96c-10.101,10.1-21.86,18.03-34.96,23.57C230.26,268.09,215.85,271,201,271l0,0v127.59     C201,404.1,196.51,408.59,191,408.59z M455.72,153.93c-4.41,0-8.35-2.96-9.59-7.19c-0.01-0.01-0.01-0.01-0.01-0.02     c-0.74-2.55-0.45-5.25,0.83-7.59c1.279-2.34,3.399-4.05,5.96-4.8c0.92-0.27,1.87-0.4,2.819-0.4c4.4,0,8.34,2.95,9.59,7.17     c0,0.01,0,0.01,0,0.02c0.75,2.56,0.461,5.26-0.819,7.61c-1.28,2.34-3.4,4.04-5.97,4.79     C457.609,153.79,456.67,153.93,455.72,153.93z"></path>
                        </g>
                        <g>
                           <path d="M201,271c-3.48,0-7.01-0.17-10.48-0.5L51.03,271c0.01,0,0.01,0,0.01,0H51c-5.49,0-9.98-4.47-10-9.97     c-0.02-5.51,4.45-10.01,9.96-10.03l140.01-0.5l1.01,0.05c3,0.3,6.03,0.45,9.02,0.45c24.03,0,46.63-9.37,63.64-26.36     C281.63,207.63,290.99,185.03,291,161c0-33.14-18.15-63.52-47.38-79.29C230.43,74.61,216.09,71,201,71h-35.73     c-5.51,0-10-4.48-10-10c0-5.51,4.49-10,10-10H201c9.24,0,18.42,1.15,27.3,3.42c8.63,2.2,16.97,5.46,24.81,9.69     c17.2,9.26,31.67,22.98,41.86,39.69C305.45,120.99,311,140.77,311,161c0,14.85-2.91,29.26-8.65,42.82     c-5.54,13.1-13.47,24.86-23.569,34.96c-10.101,10.1-21.86,18.03-34.96,23.57C230.26,268.09,215.85,271,201,271z M115.27,71     c-5.51,0-10-4.49-10-10c0-5.51,4.49-10,10-10c5.52,0,10,4.49,10,10C125.27,66.51,120.79,71,115.27,71z"></path>
                        </g>
                        <g>
                           <path d="M241.01,201L241.01,201c-3.36,0-6.47-1.66-8.33-4.45l-20-30c-2.05-3.08-2.24-7.01-0.5-10.27     c1.75-3.26,5.13-5.28,8.82-5.28h50c5.51,0,10,4.49,10,10c0,5.51-4.49,10-10,10h-31.31l9.63,14.45     c3.06,4.59,1.81,10.81-2.77,13.87C244.9,200.42,242.98,201,241.01,201z"></path>
                        </g>
                        <g>
                           <path d="M150.99,201v-0.05V201c-1.97,0-3.89-0.58-5.54-1.68c-4.58-3.06-5.83-9.28-2.77-13.87l20-30     c1.86-2.79,4.97-4.45,8.33-4.45c1.97,0,3.89,0.58,5.54,1.68c4.58,3.06,5.83,9.28,2.77,13.87l-20,30     C157.46,199.34,154.35,201,150.99,201z"></path>
                        </g>
                        <g>
                           <path d="M171,171h-50c-5.51,0-10-4.49-10-10c0-5.51,4.49-10,10-10h31.31l-9.63-14.45c-1.48-2.22-2.01-4.89-1.49-7.51     c0.53-2.62,2.04-4.88,4.26-6.36c1.65-1.1,3.57-1.68,5.54-1.68c3.36,0,6.47,1.66,8.33,4.45l20,30c2.05,3.08,2.24,7.01,0.5,10.27     C178.07,168.98,174.7,171,171,171z"></path>
                        </g>
                        <g>
                           <path d="M225.99,231c-1.97,0-3.89-0.58-5.54-1.68l-30-20c-2.22-1.48-3.73-3.74-4.26-6.36c-0.52-2.62,0.01-5.28,1.49-7.51     c1.86-2.79,4.97-4.45,8.33-4.45c1.97,0,3.89,0.58,5.54,1.68l30,20c2.22,1.48,3.73,3.74,4.26,6.36c0.52,2.62-0.01,5.29-1.49,7.51     C232.46,229.34,229.35,231,225.99,231z"></path>
                        </g>
                        <g>
                           <path d="M196,261c-5.51,0-10-4.49-10-10v-31.32l-14.45,9.64c-1.65,1.1-3.57,1.68-5.54,1.68c-3.36,0-6.47-1.66-8.33-4.45     c-1.48-2.23-2.01-4.89-1.49-7.51c0.53-2.62,2.04-4.88,4.26-6.36l30-20c3.02-2.02,7.06-2.21,10.27-0.5     c3.26,1.74,5.28,5.12,5.28,8.82v50C206,256.51,201.51,261,196,261z"></path>
                        </g>
                        <g>
                           <path d="M195.99,131c-1.97,0-3.89-0.58-5.54-1.68l-30-20c-4.58-3.06-5.83-9.28-2.77-13.87c1.86-2.79,4.97-4.45,8.33-4.45     c1.97,0,3.89,0.58,5.54,1.68l30,20c4.58,3.06,5.83,9.28,2.77,13.87C202.46,129.34,199.35,131,195.99,131z"></path>
                        </g>
                        <g>
                           <path d="M196,131c-1.63,0-3.27-0.41-4.72-1.18c-3.26-1.75-5.28-5.13-5.28-8.82V71c0-5.51,4.49-10,10-10c5.51,0,10,4.49,10,10     v31.31l14.45-9.63c1.65-1.1,3.57-1.68,5.54-1.68c3.36,0,6.47,1.67,8.33,4.45c3.06,4.59,1.81,10.81-2.77,13.87l-30,20     C199.9,130.42,197.98,131,196,131z"></path>
                        </g>
                     </g>
                  </g>
               </g>
            </g>
         </g>
         <g class="sampleTexts_1" transform="scale(1) translate(0.000006103515630684342,29.37000274658203)">
            <g class="logo--name svgLogoName_1 logoNameBox" transform="scale(1) translate(195.75999989509583,239.27999877929688)">
               <path d="M18.62 0.24C23.58 0.24 28.07-1.76 32.07-5.77C33.99-4.04 36.00-2.44 38.12-1.00C39.00-0.44 39.88-0.16 40.80-0.16C41.48-0.16 42.16-0.36 42.76-0.76C43.36-1.16 43.72-1.56 43.80-1.96C43.88-2.32 43.92-2.60 43.92-2.72C43.92-3.72 41.48-6.17 36.60-10.05L35.79-10.69C39.12-16.34 41.16-22.98 41.96-30.63C42.16-32.35 42.28-34.07 42.28-35.79C42.28-39.84 41.68-43.88 40.52-47.85C38.56-53.49 34.59-56.66 28.63-57.34L28.39-57.34C28.11-57.34 27.79-57.30 27.51-57.22L27.23-57.22C21.70-57.22 17.10-55.61 13.49-52.45C9.85-49.25 7.17-45.12 5.37-40.08C3.56-34.99 2.68-31.07 2.64-28.31C2.64-25.54 2.64-24.14 2.64-24.06C2.64-18.66 3.44-13.81 5.08-9.41C5.93-7.17 7.17-5.21 8.89-3.52C10.13-2.32 11.65-1.40 13.45-0.80C13.65-0.76 13.81-0.68 13.97-0.60L13.65-0.68L14.13-0.52C15.50 0 17.02 0.24 18.62 0.24ZM10.17-34.43C9.41-34.43 9.05-34.83 9.05-35.59C9.05-36.36 9.41-36.76 10.17-36.76C10.93-36.76 11.29-36.36 11.29-35.59C11.29-34.83 10.93-34.43 10.17-34.43ZM11.49-40.44C11.17-40.44 10.93-40.52 10.73-40.72C10.57-40.88 10.49-41.08 10.49-41.24L10.53-41.56C12.37-47.09 15.21-50.93 19.10-53.09C19.30-53.17 19.46-53.25 19.62-53.25C19.78-53.25 19.90-53.17 20.02-53.09C20.34-52.89 20.46-52.57 20.46-52.21C20.46-51.93 20.34-51.69 20.02-51.49C16.90-49.45 14.25-45.92 12.17-40.88C12.01-40.60 11.77-40.44 11.49-40.44ZM20.02-6.29C19.86-6.29 19.54-6.33 19.10-6.41C18.98-6.45 18.86-6.49 18.74-6.49L18.14-6.77C16.98-7.93 16.10-9.37 15.50-11.09C14.17-14.73 13.49-17.62 13.45-19.78C13.45-21.94 13.45-23.10 13.45-23.30C13.45-29.71 14.65-35.47 17.02-40.64C18.74-44.32 21.14-47.25 24.22-49.41C25.71-50.41 27.23-51.09 28.87-51.41L29.47-51.37C30.79-51.13 31.79-50.33 32.43-48.93C33.07-47.53 33.51-46.25 33.79-45.04C34.59-41.88 35.03-38.64 35.03-35.35C35.03-31.87 34.55-28.03 33.63-23.94C32.95-20.86 31.87-17.98 30.43-15.21C28.71-16.70 26.99-18.18 25.26-19.66C24.02-20.82 23.10-21.42 22.58-21.46C22.06-21.46 21.74-21.46 21.66-21.46C20.90-21.46 20.26-21.30 19.70-20.90C19.10-20.54 18.78-20.14 18.74-19.78C18.66-19.38 18.62-19.10 18.62-18.98C18.62-18.46 18.82-18.02 19.26-17.58C21.78-15.05 24.38-12.61 27.03-10.25C24.98-7.89 22.82-6.57 20.50-6.33C20.30-6.33 20.18-6.33 20.14-6.33C20.10-6.29 20.06-6.29 20.02-6.29ZM65.22 0.28C67.50 0.28 69.67-0.24 71.67-1.24C76.23-3.56 79.32-7.65 80.96-13.53C82.04-17.74 82.64-20.98 82.72-23.26C82.84-25.50 82.88-27.31 82.88-28.71C82.88-31.55 82.80-33.59 82.68-34.79C82.48-36.76 81.20-37.76 78.76-37.76C76.47-37.76 75.31-36.80 75.27-34.83L75.27-34.11C75.31-32.95 75.35-31.83 75.35-30.67C75.35-28.95 75.31-27.23 75.23-25.50C74.91-17.46 73.07-11.77 69.71-8.49C68.23-7.01 66.62-6.33 64.90-6.37L64.54-6.37C64.30-6.41 64.10-6.45 64.02-6.45L64.06-6.49C64.06-6.53 63.98-6.57 63.86-6.65C63.74-6.73 63.66-6.81 63.54-6.85C63.42-6.89 63.34-6.89 63.30-6.93C63.26-6.93 63.22-6.97 63.22-6.97L63.18-6.93L63.34-6.81C62.90-7.17 62.58-7.41 62.46-7.61C62.34-7.77 62.26-7.97 62.14-8.21C61.10-10.61 60.58-13.25 60.58-16.10C60.58-19.74 60.98-23.54 61.70-27.59C62.26-30.63 62.58-33.71 62.70-36.80C62.74-37.80 62.26-38.64 61.34-39.32C59.98-40.24 58.66-40.72 57.33-40.72C55.25-40.72 53.89-40.08 53.37-38.76C51.53-34.47 50.41-28.75 49.93-21.66C49.85-20.90 49.85-20.14 49.85-19.42C49.85-15.62 50.17-12.61 50.85-10.33C51.77-7.33 53.53-4.80 56.17-2.72C58.34-1.04 60.26-0.12 61.94 0.04C63.62 0.20 64.74 0.28 65.22 0.28ZM53.05-21.74C52.49-21.74 52.21-22.02 52.21-22.58C52.21-23.18 52.49-23.46 53.05-23.46C53.61-23.46 53.89-23.18 53.89-22.58C53.89-22.02 53.61-21.74 53.05-21.74ZM53.33-25.50C52.65-25.50 52.29-25.83 52.33-26.43C52.49-30.91 53.29-34.71 54.77-37.84C54.89-38.12 55.13-38.28 55.41-38.28C55.69-38.28 55.93-38.20 56.13-38.00C56.29-37.84 56.37-37.64 56.33-37.48L56.29-37.16C55.29-34.23 54.65-31.23 54.29-28.15L54.09-26.19C54.01-25.75 53.77-25.50 53.33-25.50ZM95.93 0.16C99.21 0.16 100.82-1.24 100.82-4.00L100.82-4.08C100.54-7.17 100.38-10.25 100.38-13.37C100.38-17.74 100.74-22.46 101.38-27.47L101.74-30.35C101.98-31.87 102.10-33.39 102.10-34.87C102.10-36.08 101.90-37.24 101.50-38.32C100.90-39.56 100.14-40.28 99.21-40.48C98.29-40.64 97.65-40.72 97.29-40.72C96.25-40.72 95.33-40.44 94.53-39.80C93.37-38.72 92.53-37.40 92.01-35.79C91.45-34.15 91.05-32.59 90.77-31.03C90.29-28.19 89.93-25.30 89.73-22.46C89.53-19.58 89.45-16.78 89.45-13.93C89.45-10.65 89.57-7.37 89.89-4.08C90.37-1.24 92.37 0.16 95.93 0.16ZM93.89-22.78C93.61-22.78 93.33-22.94 93.09-23.22C93.05-23.26 93.05-23.30 93.05-23.34C92.97-23.50 92.93-23.70 92.93-23.86C92.93-24.02 92.97-24.18 93.05-24.34C93.25-24.66 93.53-24.82 93.89-24.82C94.53-24.82 94.89-24.50 94.89-23.86C94.89-23.58 94.81-23.38 94.65-23.22C94.45-22.94 94.17-22.78 93.89-22.78ZM93.77-26.27C93.29-26.27 93.01-26.55 92.97-27.15C93.05-30.27 93.57-33.31 94.57-36.28C94.69-36.64 94.85-36.84 95.05-36.88C95.25-36.88 95.41-36.88 95.45-36.88C96.05-36.88 96.37-36.64 96.37-36.08L96.33-35.79C95.65-32.95 95.13-30.07 94.81-27.15C94.69-26.55 94.33-26.27 93.77-26.27ZM100.58-48.05L102.18-48.17C103.02-48.33 103.78-48.65 104.42-49.21C104.42-49.25 104.46-49.29 104.54-49.37C104.94-49.77 105.14-50.01 105.14-50.09L105.18-50.09L105.18-50.13C105.38-50.49 105.54-50.89 105.66-51.33L105.86-52.13C105.90-52.17 105.90-52.29 105.90-52.45C105.90-52.61 105.90-52.77 105.90-52.89C105.90-53.01 105.94-53.09 105.94-53.13L105.90-53.45L105.58-54.49C105.30-55.05 104.94-55.53 104.46-55.89C104.18-56.25 103.82-56.50 103.42-56.66C102.70-57.14 101.66-57.46 100.30-57.54L100.06-57.58L99.42-57.50C98.53-57.50 97.73-57.26 97.05-56.74C96.17-56.25 95.57-55.45 95.25-54.29L95.25-54.25C94.97-53.69 94.85-53.17 94.85-52.69L94.89-52.13L95.13-51.45C95.13-51.33 95.17-51.25 95.21-51.21L95.21-51.17C95.49-50.49 96.01-49.89 96.81-49.29C98.01-48.45 99.25-48.05 100.58-48.05ZM97.17-50.25C96.57-50.25 96.29-50.57 96.29-51.17C96.29-51.81 96.57-52.13 97.17-52.13C97.81-52.13 98.13-51.81 98.13-51.17C98.13-50.57 97.81-50.25 97.17-50.25ZM97.25-52.45L96.97-52.45C96.77-52.45 96.61-52.53 96.41-52.65C96.21-52.77 96.13-52.97 96.13-53.25C96.37-54.57 97.13-55.53 98.41-56.05C98.53-56.13 98.65-56.17 98.81-56.17C99.09-56.17 99.33-56.01 99.54-55.77C99.62-55.61 99.66-55.49 99.66-55.33C99.66-55.01 99.50-54.81 99.21-54.65C98.53-54.25 98.05-53.69 97.73-52.97L97.65-52.85C97.53-52.61 97.41-52.49 97.25-52.45ZM102.42-55.77L102.38-55.77ZM111.39 0.32C112.71 0.28 113.99 0.24 115.27 0.16C117.71 0 120.15-0.04 122.60-0.04L126.40 0C127.20 0 127.92-0.24 128.60-0.72C129.24-1.20 129.56-1.88 129.56-2.68L129.56-2.88C129.36-3.80 128.88-4.48 128.08-5.00C127.28-5.53 126.44-5.77 125.60-5.77L122.72-5.73C121.36-5.73 119.99-5.77 118.63-5.81C120.92-8.61 123.52-12.29 126.48-16.78L129.64-21.46C133.93-27.75 136.37-31.39 136.93-32.35C137.69-33.67 138.25-35.03 138.53-36.44L138.57-36.88C138.57-38.08 137.97-39.04 136.81-39.76C135.89-40.32 135.01-40.60 134.09-40.60C133.69-40.60 133.33-40.56 132.93-40.44C130.48-39.68 127.96-39.28 125.28-39.28C122.32-39.28 119.55-39.44 116.95-39.80L116.19-39.84C114.31-39.84 113.19-39.16 112.83-37.84L112.79-37.40C112.79-36.72 113.07-36.12 113.59-35.55C114.83-34.31 118.83-33.71 125.64-33.71L123.84-31.19C118.91-24.46 114.99-18.70 112.03-13.89C110.22-10.93 108.58-7.85 107.14-4.60C106.98-4.12 106.86-3.64 106.86-3.24C106.86-2.40 107.18-1.68 107.82-1.08C108.78-0.16 109.98 0.32 111.39 0.32ZM127.08-21.86C126.52-21.86 126.24-22.14 126.24-22.74C126.24-23.30 126.52-23.58 127.08-23.58C127.64-23.58 127.92-23.30 127.92-22.74C127.92-22.14 127.64-21.86 127.08-21.86ZM128.68-25.14C128.32-25.14 128.04-25.30 127.92-25.63C127.84-25.83 127.80-25.99 127.80-26.07C127.80-26.27 127.84-26.47 127.96-26.59C128.08-26.75 128.20-26.87 128.28-26.99C129.28-28.23 130.28-29.47 131.21-30.75C132.13-32.03 132.93-33.39 133.61-34.83C133.77-35.15 133.97-35.31 134.21-35.31C134.57-35.31 134.81-35.19 134.97-34.95C135.13-34.71 135.21-34.51 135.21-34.31L135.17-33.95C134.01-31.39 132.05-28.55 129.24-25.42C129.04-25.22 128.84-25.14 128.68-25.14ZM187.66 0.28C189.86 0.28 191.34-0.68 192.06-2.60C192.70-4.56 193.06-6.61 193.18-8.69C194.19-18.46 194.67-27.83 194.67-36.84C194.67-40.72 194.59-44.56 194.39-48.41C194.39-50.45 193.95-52.41 193.10-54.25C191.86-56.46 189.98-57.58 187.42-57.58C186.54-57.58 185.66-57.42 184.82-57.06C183.82-56.62 183.01-55.97 182.45-55.17C181.57-53.93 179.45-49.77 176.09-42.64C172.84-35.96 170.40-31.15 168.68-28.27C168.08-29.43 166.40-33.39 163.60-40.12C160.35-48.09 157.95-53.13 156.43-55.25C155.27-57.10 153.59-58.02 151.30-58.02C148.54-58.02 146.94-57.02 146.46-55.01C144.58-43.68 143.66-31.83 143.66-19.46C143.66-13.49 144.10-8.17 144.94-3.48C145.18-2.40 145.74-1.60 146.58-1.00C147.58-0.28 148.74 0.08 150.02 0.12C150.74 0.12 151.50-0.04 152.34-0.36C153.39-0.72 153.99-1.44 154.15-2.48C154.27-4.44 154.31-6.37 154.31-8.33L154.27-14.37C154.27-23.18 154.71-32.03 155.63-40.88L155.75-40.56C159.87-29.87 162.83-23.62 164.72-21.82C165.72-20.82 167.12-20.30 168.88-20.26C170.52-20.30 171.76-20.86 172.60-21.86C173.45-22.86 174.25-24.22 175.01-25.95C177.21-29.95 180.09-35.63 183.70-43.00L183.74-37.52C183.74-27.59 183.33-19.38 182.49-12.89C182.09-10.37 181.89-7.85 181.89-5.37L181.93-3.68C182.09-2.52 182.69-1.60 183.74-0.92C184.98-0.12 186.30 0.28 187.66 0.28ZM149.02-24.06C148.46-24.06 148.18-24.34 148.18-24.94C148.18-25.54 148.46-25.87 149.02-25.87C149.58-25.87 149.90-25.54 149.90-24.94C149.86-24.34 149.58-24.06 149.02-24.06ZM148.90-28.07C148.34-28.07 148.02-28.35 147.90-28.95C147.74-30.75 147.62-32.55 147.62-34.35C147.62-36.40 147.74-38.44 147.98-40.52C148.22-44.24 148.94-47.89 150.10-51.45C150.26-51.85 150.54-52.05 150.94-52.05C151.54-52.05 151.82-51.81 151.82-51.29L151.78-51.01C150.46-45.88 149.82-40.40 149.82-34.55L149.82-31.95C149.82-30.95 149.82-29.95 149.78-28.95C149.74-28.35 149.46-28.07 148.90-28.07ZM191.34-30.59C190.74-30.59 190.46-30.91 190.46-31.51C190.46-32.11 190.74-32.43 191.34-32.43C191.90-32.43 192.22-32.11 192.22-31.51C192.18-30.91 191.90-30.59 191.34-30.59ZM191.54-34.59C190.98-34.59 190.70-34.87 190.66-35.43C190.50-38.00 190.42-40.56 190.38-43.08L190.26-47.53C190.26-48.05 190.54-48.33 191.06-48.33C191.54-48.33 191.86-48.05 191.94-47.53L192.10-45.60C192.38-43.12 192.50-40.60 192.50-38.12C192.50-37.24 192.50-36.32 192.46-35.43C192.38-34.87 192.06-34.59 191.54-34.59ZM214.28 0.64C216.97 0.64 219.53 0.04 221.89-1.16C222.57-0.92 223.21-0.80 223.81-0.80C224.85-0.80 225.82-1.16 226.70-1.88C227.86-2.84 228.74-4.16 229.26-5.81C229.78-7.45 230.18-9.25 230.50-11.13C231.34-15.50 231.74-20.02 231.74-24.70L231.74-24.62C231.70-24.62 231.66-25.22 231.58-26.47C231.38-29.31 230.66-32.03 229.42-34.59C227.94-37.64 225.98-39.72 223.45-40.88C220.93-42.00 218.49-42.56 216.13-42.56C213.80-42.56 211.28-42.08 208.52-41.16C204.27-39.68 201.83-37.28 201.15-34.03L201.11-33.67C201.11-32.75 201.51-32.03 202.31-31.47C203.07-30.91 203.99-30.63 205.00-30.63C206.16-30.63 207.00-31.07 207.60-31.99C208.56-33.47 209.68-34.51 210.92-35.19C212.16-35.83 213.32-36.16 214.48-36.16C216.53-36.16 217.93-35.51 218.77-34.23C219.57-32.91 220.13-31.43 220.41-29.71C220.81-27.43 221.01-26.03 221.01-25.54L220.93-23.22C218.41-25.22 215.53-26.23 212.24-26.23C208.88-26.23 206.20-25.14 204.15-23.02C202.31-21.06 201.11-18.62 200.55-15.70C200.31-14.53 200.19-13.37 200.19-12.29C200.19-7.29 202.39-3.56 206.80-1.20C209.08 0.04 211.56 0.64 214.28 0.64ZM213.88-6.01C213.56-6.01 213.24-6.05 212.96-6.13C212.68-6.21 212.44-6.33 212.28-6.45C212.08-6.57 211.96-6.69 211.84-6.73C211.84-6.77 211.80-6.85 211.72-6.93C211.68-7.01 211.60-7.05 211.56-7.05C211.12-8.01 210.88-9.09 210.88-10.33C210.88-10.93 210.92-11.53 211.04-12.21C211.56-15.46 212.52-17.82 213.96-19.26L214.24-19.46L214.16-19.38C214.28-19.38 214.40-19.42 214.56-19.50C215.61-19.46 216.57-18.78 217.49-17.50C218.61-15.94 219.29-14.17 219.49-12.21C219.65-10.53 219.73-9.01 219.73-7.57C216.97-6.53 215.00-6.01 213.88-6.01ZM227.66-23.38C227.14-23.38 226.90-23.62 226.90-24.14L226.90-25.87C226.90-27.99 226.26-30.55 224.97-33.51C224.89-33.63 224.85-33.79 224.85-33.91C224.85-34.11 224.89-34.27 225.01-34.39C225.21-34.67 225.50-34.79 225.78-34.79C226.02-34.79 226.22-34.63 226.34-34.35C227.98-31.07 228.78-27.63 228.78-24.02C228.78-23.86 228.58-23.70 228.22-23.50C228.02-23.42 227.82-23.38 227.66-23.38ZM228.10-20.26C227.58-20.26 227.34-20.54 227.34-21.10C227.34-21.62 227.58-21.90 228.10-21.90C228.62-21.90 228.90-21.62 228.90-21.10C228.90-20.54 228.62-20.26 228.10-20.26ZM228.26-17.78C227.70-17.78 227.46-18.06 227.46-18.66C227.46-19.26 227.70-19.54 228.26-19.54C228.82-19.54 229.14-19.26 229.14-18.66C229.14-18.06 228.82-17.78 228.26-17.78ZM247.36 0.72C249.52 0.72 251.68 0.20 253.72-0.92C256.36-2.32 258.13-4.44 259.01-7.29C259.17-8.05 259.25-8.81 259.25-9.53C259.25-12.81 257.08-16.46 252.68-20.46L251.84-21.34C249.72-23.22 248.64-25.54 248.64-28.27C248.64-30.59 249.56-32.35 251.36-33.55C252.04-33.99 252.88-34.35 253.92-34.59C253.92-34.55 254.04-34.55 254.32-34.55C256.04-33.67 256.92-32.03 256.92-29.55C257.00-28.51 257.45-27.79 258.25-27.43C259.09-27.07 259.81-26.91 260.49-26.91C262.21-26.91 263.33-27.55 263.77-28.83C263.93-29.55 264.01-30.23 264.01-30.91C264.01-32.71 263.45-34.39 262.25-35.96C259.49-39.56 255.80-41.36 251.12-41.36C246.47-41.36 242.91-39.56 240.35-35.92C239.03-33.83 238.39-31.63 238.39-29.27C238.39-24.86 240.95-20.74 246.15-16.82C247.12-16.06 248.04-15.29 248.96-14.45C249.72-13.77 250.28-13.01 250.72-12.17C251.16-11.37 251.40-10.61 251.40-9.93C251.40-8.65 250.76-7.49 249.52-6.45C248.64-5.73 247.72-5.33 246.71-5.29C246.55-5.29 246.39-5.33 246.19-5.41L246.07-5.41C246.03-5.41 246.03-5.41 246.03-5.37C245.27-5.81 244.87-6.49 244.87-7.53C244.87-7.85 244.95-8.21 245.07-8.57L245.11-9.17C245.11-10.05 244.71-10.81 243.87-11.37C242.87-12.09 241.71-12.45 240.47-12.45C238.23-12.41 237.11-10.93 237.11-7.97C237.11-7.21 237.23-6.45 237.51-5.73C238.11-4.08 239.11-2.68 240.59-1.56C242.55-0.04 244.79 0.72 247.36 0.72ZM241.75-26.99C241.11-26.99 240.79-27.31 240.79-27.95C240.79-28.63 241.11-28.95 241.75-28.95C242.39-28.95 242.71-28.63 242.71-27.95C242.71-27.31 242.39-26.99 241.75-26.99ZM242.15-30.39C241.55-30.39 241.23-30.71 241.19-31.27C241.47-34.87 243.27-37.36 246.55-38.76L246.88-38.80C247.08-38.80 247.28-38.72 247.40-38.56C247.56-38.40 247.60-38.20 247.60-37.96C247.60-37.52 247.44-37.20 247.04-37.04C245.71-36.48 244.79-35.67 244.19-34.59C243.59-33.51 243.19-32.35 242.91-31.03C242.79-30.63 242.55-30.39 242.15-30.39ZM254.20-34.63L254.12-34.63ZM280.83 0.48C283.91 0.48 286.51-0.64 288.63-2.88C290.76-5.13 291.84-7.77 291.92-10.81C291.84-11.85 291.40-12.57 290.56-12.93C289.72-13.29 288.96-13.49 288.27-13.49C286.51-13.49 285.43-12.85 285.03-11.53C284.79-10.45 284.43-9.41 283.99-8.45C283.55-7.49 282.83-6.69 281.83-6.01C281.63-5.89 281.47-5.85 281.35-5.81C281.19-5.77 281.11-5.73 281.11-5.69C280.27-6.53 279.83-8.45 279.83-11.49C279.83-12.77 279.91-13.77 280.03-14.53C280.55-23.94 281.91-33.03 284.19-41.80C286.39-41.76 288.43-41.64 290.40-41.48L290.64-41.48C291.40-41.48 292.04-41.72 292.56-42.20C293.08-42.72 293.36-43.32 293.36-44.04C293.36-44.76 292.96-45.40 292.16-45.92C291.36-46.45 290.52-46.77 289.68-46.89C288.59-47.01 287.47-47.09 286.31-47.09C286.11-47.13 285.91-47.13 285.71-47.13C286.39-48.85 286.71-50.37 286.71-51.61C286.71-51.93 286.67-52.29 286.63-52.61C286.19-54.37 285.35-55.41 284.11-55.77C282.87-56.13 281.95-56.33 281.35-56.33C280.23-56.33 279.19-55.97 278.22-55.29C277.38-54.53 276.70-53.61 276.26-52.53C275.78-51.45 275.38-50.33 275.02-49.21L274.54-47.65C273.46-47.73 272.34-47.77 271.30-47.77C269.90-47.77 268.54-47.69 267.17-47.57C266.57-47.49 266.05-47.25 265.65-46.81C265.29-46.37 265.09-45.88 265.09-45.32C265.09-44.60 265.41-44.00 266.09-43.48C267.09-42.68 269.42-42.24 272.98-42.12C271.66-37.16 270.66-31.71 269.98-25.75L269.78-24.18C269.30-20.82 269.06-18.10 269.06-16.06C269.06-10.81 270.58-6.49 273.58-3.04C275.46-0.92 277.86 0.28 280.83 0.48ZM274.50-31.47C273.90-31.47 273.58-31.79 273.58-32.43C273.58-33.07 273.90-33.39 274.50-33.39C275.14-33.39 275.46-33.07 275.46-32.43C275.46-31.79 275.14-31.47 274.50-31.47ZM275.02-35.59C274.46-35.59 274.18-35.88 274.18-36.44C274.70-41.88 276.14-47.05 278.50-51.97C278.67-52.25 278.87-52.37 279.15-52.37C279.43-52.37 279.63-52.29 279.79-52.13C279.95-51.93 280.03-51.77 280.03-51.61L279.99-51.37C278.50-47.69 277.34-43.72 276.50-39.44C276.30-38.36 276.10-37.28 275.86-36.20C275.74-35.79 275.46-35.59 275.02-35.59ZM313.46 0.36C318.26 0.16 322.19-1.72 325.23-5.29C326.79-7.09 327.79-9.13 328.23-11.41L328.23-11.97C328.19-12.85 327.79-13.53 326.99-14.05C326.19-14.53 325.27-14.77 324.23-14.77C322.95-14.77 321.95-14.29 321.23-13.33L320.14-11.45C318.30-7.77 316.02-5.89 313.38-5.73L313.18-5.73C312.30-5.73 311.46-5.93 310.70-6.29C309.05-7.09 308.13-9.53 307.93-13.61L307.93-14.37C307.93-15.13 307.97-15.94 308.01-16.70L309.49-16.74C314.18-16.94 318.50-18.14 322.47-20.38C325.63-22.06 327.91-24.54 329.27-27.83C329.67-29.03 329.87-30.19 329.87-31.31C329.87-32.67 329.51-33.95 328.79-35.19C327.55-37.40 325.63-39.08 323.11-40.16C321.11-40.96 319.02-41.36 316.90-41.36C313.98-41.36 311.10-40.64 308.29-39.20C304.21-37.04 301.21-33.43 299.32-28.39C297.76-24.14 296.96-19.78 296.96-15.33L297.00-13.69C297.12-11.05 297.88-8.65 299.32-6.53C300.69-4.52 302.45-2.92 304.65-1.72C307.33-0.32 310.01 0.36 312.74 0.36ZM309.01-22.54C309.69-25.63 311.06-28.31 313.10-30.59C315.14-32.71 317.26-33.79 319.38-33.79L319.34-33.79C319.34-33.71 319.62-33.67 320.22-33.67L320.02-33.75C321.07-33.43 321.59-32.63 321.59-31.35C321.59-30.87 321.51-30.43 321.39-30.07C320.54-27.91 319.22-26.27 317.42-25.18C315.30-23.86 312.94-23.06 310.38-22.74L309.21-22.62ZM303.37-26.79L303.29-26.79C302.73-26.79 302.45-27.11 302.45-27.79C302.45-28.39 302.77-28.67 303.37-28.67C303.97-28.67 304.29-28.35 304.29-27.67C304.29-27.11 303.97-26.83 303.37-26.79ZM304.41-29.19C304.09-29.19 303.85-29.27 303.69-29.47C303.53-29.67 303.45-29.83 303.45-29.99C303.45-30.11 303.49-30.27 303.57-30.43C305.33-34.23 308.17-36.80 312.10-38.16L312.30-38.20C312.90-38.20 313.18-37.88 313.18-37.28C313.18-36.88 312.98-36.64 312.62-36.52C309.61-35.35 307.09-33.03 305.05-29.63C304.85-29.35 304.65-29.19 304.41-29.19ZM343.29 0.24C344.85 0.24 346.13-0.28 347.13-1.24C347.81-1.92 348.17-2.68 348.17-3.52C348.17-3.96 348.05-4.48 347.81-5.00C347.61-6.05 347.53-7.09 347.53-8.17C349.77-15.78 352.98-22.70 357.06-28.95C357.06-28.99 357.06-28.99 357.10-28.99C357.90-30.23 358.58-31.07 359.18-31.47C359.50-30.63 359.66-29.79 359.66-28.91C359.66-28.55 359.62-28.15 359.58-27.79L359.58-27.47C359.58-26.23 359.98-25.18 360.78-24.30C361.98-23.02 363.51-22.38 365.35-22.38C368.31-22.38 369.99-23.42 370.43-25.46C370.55-26.27 370.59-27.11 370.59-27.91C370.59-30.15 370.15-32.07 369.27-33.67C367.63-36.36 365.31-38.04 362.22-38.68C361.58-38.80 360.98-38.84 360.38-38.84C358.66-38.84 357.06-38.36 355.62-37.44C353.66-36.20 352.05-34.59 350.73-32.59L349.69-30.99C350.29-33.15 350.57-34.75 350.57-35.75C350.57-36.96 350.17-38.00 349.37-38.84C348.21-40.08 346.65-40.72 344.69-40.72C342.41-40.72 340.84-39.68 340.00-37.68C339.04-34.95 338.28-31.91 337.76-28.47C336.88-23.82 336.44-18.86 336.44-13.61C336.44-12.37 336.48-11.17 336.52-9.93L336.56-8.73C336.56-5.57 337.08-3.32 338.16-1.96C339.48-0.52 341.20 0.24 343.29 0.24ZM340.76-21.50C340.12-21.50 339.80-21.82 339.80-22.50C339.80-23.18 340.12-23.50 340.76-23.50C341.40-23.50 341.76-23.18 341.76-22.50C341.76-21.82 341.40-21.50 340.76-21.50ZM341.04-24.38C340.28-24.38 339.88-25.58 339.88-27.95C339.88-29.11 340.04-30.31 340.36-31.51C340.96-33.79 341.84-35.83 342.97-37.56C343.17-37.84 343.41-38.00 343.69-38.00C344.01-38.00 344.25-37.88 344.41-37.68C344.57-37.48 344.65-37.32 344.65-37.16C344.65-37.00 344.57-36.84 344.49-36.68C343.53-34.87 342.89-33.03 342.57-31.15C342.25-29.27 342.04-27.31 342.00-25.26C341.96-24.70 341.64-24.38 341.04-24.38ZM358.54-32.39L358.42-32.55Z"></path>
            </g>
            <g id="" class="logo--name svgSloganText_1 sloganBox" transform="scale(1) translate(198.4,259.2)"></g>
         </g>
      </g>
   </g>
</svg>