<svg viewBox="0 0 32 32">
    <g id="Page-1" fill-rule="evenodd">
        <g id="Icon-Set" transform="translate(-516.000000, -1087.000000)">
            <path d="M532,1117 C524.268,1117 518,1110.73 518,1103 C518,1095.27 524.268,1089 532,1089 C539.732,1089 546,1095.27 546,1103 C546,1110.73 539.732,1117 532,1117 L532,1117 Z M532,1087 C523.163,1087 516,1094.16 516,1103 C516,1111.84 523.163,1119 532,1119 C540.837,1119 548,1111.84 548,1103 C548,1094.16 540.837,1087 532,1087 L532,1087 Z M538,1102 L526,1102 C525.447,1102 525,1102.45 525,1103 C525,1103.55 525.447,1104 526,1104 L538,1104 C538.553,1104 539,1103.55 539,1103 C539,1102.45 538.553,1102 538,1102 L538,1102 Z" id="minus-circle">

</path>
        </g>
    </g>
</svg>