<svg viewBox="0 0 50 50" xmlns="http://www.w3.org/2000/svg">
<path d="M30.9906 37.1781C32.2039 35.9836 31.5492 33.2398 29.5672 30.0703C30.2875 29.9578 30.9609 29.7859 31.4703 29.5227C33.3031 28.5766 34.5406 26.8523 35.4773 25.0688C36.4844 23.1555 37.1602 21.0523 38.4742 19.3102C38.6961 19.0156 38.918 18.7516 39.1391 18.5031C41.9742 18.843 44.2375 19.4523 44.2375 19.4523L45.1023 17.2547C44.0108 16.8629 42.8915 16.553 41.7539 16.3273C42.4508 15.9313 42.9055 15.8078 42.9055 15.8078L42.0859 13.5922C40.7719 14.1477 39.7055 14.9672 38.8125 15.9484C35.475 15.7617 32.1141 16.4266 29.4625 18.4828C27.4688 20.0297 26.1219 22.1742 24.8547 24.3195C23.7319 23.2177 22.5363 22.1927 21.2758 21.2516C21.5148 20.8586 21.7711 20.5055 22.0469 20.2328C23.7133 18.5922 25.9117 17.543 27.3539 15.6656C30.3852 11.7234 28.168 5.54375 25.6742 2.34375C25.2273 2.77422 24.4883 3.40156 23.932 3.89687C26.5828 6.61172 28.4367 11.3648 26.3594 14.9164C25.1984 16.9016 23.0531 18.1469 21.5531 19.8523C21.2938 20.1484 21.0617 20.5234 20.8516 20.9375C16.9289 18.1242 13.3289 16.9922 11.9023 18.3969C11.7607 18.5418 11.644 18.7092 11.557 18.8922L11.5516 18.8867L11.5133 18.9984C11.4602 19.1195 11.4117 19.2453 11.3789 19.3828L1.5625 47.6562L30.2047 37.6422L30.1969 37.6344C30.5047 37.5352 30.7758 37.3891 30.9906 37.1781ZM7.26016 44.0094L4.86953 42.8953L6.48281 38.2469L13.882 41.6937L7.26016 44.0094ZM20.5031 39.3789L8.09766 33.5984L9.71094 28.9508L18.9812 33.6039C13.4477 30.0023 11.3242 24.3016 11.3242 24.3016L11.8758 22.7133C12.8562 25.1938 15.0133 28.2828 17.9773 31.1984C20.9664 34.1406 24.1344 36.2719 26.6664 37.2242L20.5031 39.3789ZM25.268 24.7383C26.5633 22.8812 27.8984 21.007 29.7547 19.6734C31.5219 18.4031 34.3906 18.1711 37.1102 18.3234C36.1914 19.9281 35.5125 21.7086 34.9031 23.4188C34.1664 25.4891 33.1789 27.6359 31.2961 28.9055C30.7883 29.2477 30.0766 29.4977 29.3164 29.6828C28.2719 28.082 26.9016 26.3898 25.268 24.7383Z" />
<path d="M17.9945 17.1875C18.7773 17.1875 16.4305 14.8438 16.8226 12.7883C18.3258 12.6727 21.7617 13.35 19.7617 10.6031C22.0242 11.0016 23.1961 9.31252 21.0602 7.71174C21.7711 7.76174 22.8758 6.42112 22.0828 6.25159C19.5422 5.7133 18.5476 7.08752 20.1602 9.06955C18.4648 8.75393 17.0828 9.54221 18.3562 11.3125C13.4609 10.7024 16.2461 17.1875 17.9945 17.1875Z" />
<path d="M34.8008 15.1047C35.5344 14.7734 34.2899 12.5852 33.8852 12.0258C36.9813 11.6945 36.8641 10.7719 34.9227 8.79531C40.2008 8.97266 35.0859 5.97266 35.8031 4.78516C36.4242 3.75547 38.3297 4.83516 38.1531 4.26172C37.5578 2.34375 31.9109 3.64062 35.4844 7.22187C32.3656 7.28281 32.0664 8.30234 34.3906 10.4156C30.3422 10.4602 33.6453 15.625 34.8008 15.1047Z" />
<path d="M48.2008 22.832C46.9648 23.1781 46.7742 23.0484 46.9391 24.2789C44.0844 22.9648 41.0641 21.1375 42.8969 25.9789C39.6547 24.0484 39.8164 25.739 39.2101 28.521C38.4211 27.9062 37.3 26.2859 37.3 26.2859L36.1125 27.2945C36.1125 27.2945 38.2883 30.3632 39.3625 30.189C40.307 30.0367 40.8211 28.2515 40.8734 26.6781C43.8812 27.9476 45.3211 28.1171 43.9453 24.4046C46.35 25.7554 49.2984 26.9468 48.2008 22.832Z" />
<path d="M4.72578 8.93518L6.93516 11.1453L4.72578 13.3547L2.51562 11.1453L4.72578 8.93518Z" />
<path d="M10.0188 18.1235L7.80781 20.3328L5.59766 18.1219L7.80859 15.9117L10.0188 18.1235Z" />
<path d="M13.4531 5.46875L15.6625 7.67813L13.4524 9.88906L11.243 7.67813L13.4531 5.46875Z" />
<path d="M37.5086 36.3156L35.2977 34.1055L37.507 31.8945L39.718 34.1047L37.5086 36.3156Z" />
<path d="M32.582 43.8954L30.3727 41.686L32.582 39.4758L34.7922 41.686L32.582 43.8954Z" />
<path d="M42.2758 45.6406L40.0648 43.4304L42.2734 41.2195L44.4844 43.4296L42.2758 45.6406Z" />
<path d="M44.4852 35.575L42.2758 33.3649L44.4852 31.1555L46.6945 33.3649L44.4852 35.575Z" />
<path d="M40.7969 7.8125L43.0063 10.0219L40.7961 12.232L38.5867 10.0219L40.7969 7.8125Z" />
</svg>
