<svg viewBox="0 0 50 52" xmlns="http://www.w3.org/2000/svg">
<path fill-rule="evenodd" clip-rule="evenodd" d="M25 3.48837C23.3945 3.48837 22.093 4.78985 22.093 6.39535C22.093 8.00085 23.3945 9.30233 25 9.30233C26.6055 9.30233 27.907 8.00085 27.907 6.39535C27.907 4.78985 26.6055 3.48837 25 3.48837ZM18.6047 6.39535C18.6047 2.86331 21.4679 0 25 0C28.5321 0 31.3954 2.86331 31.3954 6.39535C31.3954 9.92739 28.5321 12.7907 25 12.7907C21.4679 12.7907 18.6047 9.92739 18.6047 6.39535Z" />
<path d="M25 31.976L26.5144 31.1107C26.204 30.5674 25.6258 30.2319 25 30.2319C24.3742 30.2319 23.796 30.5674 23.4856 31.1107L25 31.976ZM21.1521 18.7722C22.11 18.8734 22.9686 18.1789 23.0698 17.2209C23.1709 16.263 22.4765 15.4044 21.5186 15.3032L21.1521 18.7722ZM28.4814 15.3032C27.5235 15.4044 26.8291 16.263 26.9302 17.2209C27.0314 18.1789 27.89 18.8734 28.8479 18.7722L28.4814 15.3032ZM10.6061 23.9779L15.6649 25.6642L16.768 22.3549L11.7092 20.6686L10.6061 23.9779ZM16.4344 27.2949L13.5349 34.8335L16.7908 36.0858L19.6903 28.547L16.4344 27.2949ZM38.2907 20.6686L33.2319 22.3549L34.3351 25.6642L39.394 23.9779L38.2907 20.6686ZM30.3098 28.547L33.2093 36.0858L36.4651 34.8335L33.5656 27.2949L30.3098 28.547ZM22.8498 39.2547L26.5144 32.8414L23.4856 31.1107L19.8209 37.524L22.8498 39.2547ZM36.6033 13.7524L32.1902 14.6981L32.9212 18.109L37.3342 17.1634L36.6033 13.7524ZM17.8097 14.6981L13.3967 13.7524L12.6658 17.1634L17.0788 18.109L17.8097 14.6981ZM23.4856 32.8414L27.1502 39.2547L30.1791 37.524L26.5144 31.1107L23.4856 32.8414ZM32.1902 14.6981C31.9426 14.7512 31.827 14.776 31.7128 14.7996L32.4193 18.2156C32.5484 18.1889 32.6781 18.1611 32.9212 18.109L32.1902 14.6981ZM17.0788 18.109C17.3219 18.1611 17.4515 18.1889 17.5807 18.2156L18.2873 14.7996C18.1731 14.776 18.0574 14.7512 17.8097 14.6981L17.0788 18.109ZM18.3606 41.8598C20.216 41.8598 21.9291 40.8656 22.8498 39.2547L19.8209 37.524C19.5214 38.0481 18.9642 38.3714 18.3606 38.3714V41.8598ZM33.2093 36.0858C33.633 37.1874 32.8198 38.3714 31.6393 38.3714V41.8598C35.2679 41.8598 37.7677 38.22 36.4651 34.8335L33.2093 36.0858ZM33.2319 22.3549C32.7158 22.527 32.1665 22.6977 31.7205 22.9728L33.5528 25.9414C33.5321 25.954 33.5495 25.9388 33.6842 25.8879C33.8256 25.8344 34.0163 25.7705 34.3351 25.6642L33.2319 22.3549ZM33.5656 27.2949C33.4449 26.9812 33.373 26.7933 33.3244 26.65C33.2781 26.514 33.2788 26.4909 33.2821 26.5149L29.8258 26.9874C29.897 27.5067 30.1144 28.0393 30.3098 28.547L33.5656 27.2949ZM31.7205 22.9728C30.3505 23.8186 29.6079 25.3923 29.8258 26.9874L33.2821 26.5149C33.2509 26.287 33.357 26.0621 33.5528 25.9414L31.7205 22.9728ZM39.5349 18.9425C39.5349 19.7256 39.0337 20.4209 38.2907 20.6686L39.394 23.9779C41.5614 23.2556 43.0233 21.2272 43.0233 18.9425H39.5349ZM13.5349 34.8335C12.2324 38.22 14.7322 41.8598 18.3606 41.8598V38.3714C17.1803 38.3714 16.3671 37.1874 16.7908 36.0858L13.5349 34.8335ZM15.6649 25.6642C15.9837 25.7705 16.1744 25.8344 16.3159 25.8879C16.4505 25.9388 16.4678 25.954 16.4472 25.9414L18.2795 22.9728C17.8335 22.6977 17.2842 22.527 16.768 22.3549L15.6649 25.6642ZM19.6903 28.547C19.8856 28.0393 20.1031 27.5067 20.1741 26.9874L16.7179 26.5149C16.7211 26.4909 16.7219 26.5137 16.6756 26.65C16.627 26.7933 16.5551 26.9812 16.4344 27.2949L19.6903 28.547ZM16.4472 25.9414C16.6429 26.0621 16.749 26.287 16.7179 26.5149L20.1741 26.9874C20.3921 25.3923 19.6495 23.8186 18.2795 22.9728L16.4472 25.9414ZM6.97674 18.9425C6.97674 21.2272 8.43867 23.2556 10.6061 23.9779L11.7092 20.6686C10.9663 20.4209 10.4651 19.7256 10.4651 18.9425H6.97674ZM10.4651 18.9425C10.4651 17.7841 11.5332 16.9207 12.6658 17.1634L13.3967 13.7524C10.0925 13.0444 6.97674 15.5633 6.97674 18.9425H10.4651ZM27.1502 39.2547C28.0709 40.8656 29.784 41.8598 31.6393 41.8598V38.3714C31.0358 38.3714 30.4786 38.0481 30.1791 37.524L27.1502 39.2547ZM43.0233 18.9425C43.0233 15.5633 39.9074 13.0444 36.6033 13.7524L37.3342 17.1634C38.4667 16.9207 39.5349 17.7841 39.5349 18.9425H43.0233ZM21.5186 15.3032C20.4358 15.1888 19.3575 15.0209 18.2873 14.7996L17.5807 18.2156C18.7635 18.4603 19.9554 18.6458 21.1521 18.7722L21.5186 15.3032ZM31.7128 14.7996C30.6426 15.0209 29.5642 15.1888 28.4814 15.3032L28.8479 18.7722C30.0447 18.6458 31.2365 18.4603 32.4193 18.2156L31.7128 14.7996Z" />
<path fill-rule="evenodd" clip-rule="evenodd" d="M9.22416 31.1933C9.65686 32.0539 9.30994 33.1024 8.4493 33.5351C4.91235 35.3133 3.48837 37.3138 3.48837 38.9535C3.48837 40.7295 5.17212 42.9182 9.27141 44.7629C13.207 46.5339 18.7663 47.6744 25 47.6744C29.1008 47.6744 32.9236 47.1806 36.1885 46.3307C37.1207 46.088 38.0732 46.647 38.3158 47.5792C38.5585 48.5114 37.9995 49.4639 37.0673 49.7065C33.4909 50.6376 29.3708 51.1628 25 51.1628C18.3899 51.1628 12.3213 49.9606 7.8399 47.944C3.52224 46.0011 0 42.9572 0 38.9535C0 35.2327 3.05439 32.343 6.88237 30.4184C7.74301 29.9857 8.79147 30.3326 9.22416 31.1933ZM40.7759 31.1933C41.2085 30.3327 42.257 29.9857 43.1176 30.4184C46.9458 32.343 50 35.2327 50 38.9535C50 41.3745 48.6807 43.4572 46.782 45.0984C46.0532 45.7283 44.9518 45.6482 44.3218 44.9194C43.6919 44.1907 43.772 43.0892 44.5008 42.4593C45.9425 41.2131 46.5116 40.0134 46.5116 38.9535C46.5116 37.3138 45.0877 35.3133 41.5507 33.5351C40.6901 33.1024 40.3432 32.0539 40.7759 31.1933Z" />
</svg>
