<svg height="100" viewBox="0 0 100 100" width="100" xmlns="http://www.w3.org/2000/svg"><path d="m21 959.36223c-1.0754-.00003-2.0008 1.09909-2 2v81.99997c.0001 1.0472.9528 1.9999 2 2h58.000001c1.0472-.0001 1.9999-.9528 2-2v-63.99997c0-.53245-.215-1.0631-.5938-1.4375l-18-18c-.3721-.35999-.8884-.56653-1.4062-.5625zm2 4h36.000001v16c.0001 1.04717.9528 1.9999 2 2h16v59.99997h-54.000001zm40.000001 2.8125 11.1875 11.1875h-11.1875zm-31 27.18745c-1.1046 0-2 .8954-2 2s.8954 2 2 2h36c1.1046 0 2-.8954 2-2s-.8954-2-2-2zm0 16.00002c-1.1046 0-2 .8954-2 2s.8954 2 2 2h36c1.1046 0 2-.8954 2-2s-.8954-2-2-2zm0 16c-1.1046 0-2 .8954-2 2s.8954 2 2 2h36c1.1046 0 2-.8954 2-2s-.8954-2-2-2z" transform="translate(0 -952.36218)"/></svg>