<svg version="1.0" xmlns="http://www.w3.org/2000/svg" width="512.000000pt" height="512.000000pt" viewBox="0 0 512.000000 512.000000" preserveAspectRatio="xMidYMid meet">

<g transform="translate(0.000000,512.000000) scale(0.100000,-0.100000)" stroke="none">
<path d="M4040 4834 c-112 -16 -175 -30 -235 -51 -310 -111 -531 -340 -629 -653 -36 -112 -52 -271 -40 -378 l10 -82 -1129 -2 -1129 -3 -19 -24 c-25 -30 -24 -76 1 -101 20 -20 33 -20 1166 -20 l1145 0 35 -76 c53 -116 118 -211 208 -300 114 -114 239 -192 399 -247 16 -6 17 -57 17 -877 0 -959 2 -920 -62 -960 -31 -19 -50 -20 -289 -20 -238 0 -259 -1 -280 -19 -24 -19 -24 -22 -29 -251 l-5 -232 -260 244 c-144 134 -269 247 -279 251 -10 4 -62 7 -117 7 -93 0 -102 -2 -124 -25 -14 -13 -25 -36 -25 -50 0 -14 11 -37 25 -50 22 -22 32 -25 105 -25 l80 0 313 -293 c172 -162 322 -299 334 -306 13 -6 34 -9 48 -5 53 13 55 25 55 326 l0 278 213 0 c256 0 285 7 364 85 88 88 83 33 83 1019 l0 861 108 -3 c656 -23 1152 599 989 1239 -26 101 -86 238 -118 270 -29 29 -83 25 -108 -7 -28 -35 -27 -43 13 -122 142 -285 124 -598 -49 -857 -315 -470 -991 -503 -1351 -66 -274 332 -249 826 57 1129 165 164 360 245 589 246 180 0 321 -41 465 -135 83 -54 123 -61 155 -29 22 22 26 60 10 90 -14 25 -160 117 -238 149 -152 62 -346 93 -472 75z"/>
<path d="M4015 4473 c-149 -45 -265 -196 -265 -342 0 -58 26 -91 71 -91 44 0 68 28 79 92 10 66 27 103 67 142 138 140 383 40 383 -156 0 -130 -75 -213 -213 -233 -82 -13 -87 -26 -87 -235 0 -164 2 -179 21 -204 27 -34 77 -36 107 -3 19 21 22 35 24 161 l3 138 44 15 c93 31 168 99 217 195 33 63 43 178 24 257 -16 69 -79 162 -137 205 -93 69 -229 93 -338 59z"/>
<path d="M226 3660 c-96 -17 -189 -102 -216 -198 -6 -24 -10 -435 -10 -1188 0 -1286 -5 -1202 72 -1289 22 -25 59 -56 82 -68 l41 -22 963 -3 963 -2 24 24 c32 32 32 70 0 101 l-24 25 -938 0 c-913 0 -939 1 -970 20 -67 41 -63 -39 -63 1215 0 1254 -4 1180 63 1220 28 18 55 20 214 23 197 4 204 6 218 63 5 20 0 33 -18 55 l-25 29 -164 2 c-89 1 -185 -3 -212 -7z"/>
<path d="M4094 3318 c-54 -26 -50 -105 6 -128 23 -9 34 -9 58 4 52 27 50 106 -3 126 -31 12 -34 12 -61 -2z"/>
<path d="M877 2749 c-176 -26 -346 -185 -386 -360 -29 -123 -3 -267 67 -375 136 -210 420 -276 641 -149 l44 25 49 -46 c44 -41 53 -45 81 -40 40 8 55 23 63 63 5 28 1 38 -41 82 l-47 51 21 36 c82 139 81 351 -2 488 -58 94 -183 189 -282 214 -64 16 -146 21 -208 11z m134 -149 c110 -21 199 -91 244 -192 24 -53 27 -70 23 -141 -2 -47 -11 -99 -21 -121 l-17 -39 -54 52 c-62 58 -93 65 -131 26 -38 -38 -32 -69 26 -130 l51 -54 -24 -15 c-38 -24 -115 -39 -181 -34 -112 9 -218 82 -267 183 -34 71 -39 182 -11 256 45 120 161 204 297 218 6 1 35 -4 65 -9z"/>
<path d="M1680 2747 c-49 -25 -51 -38 -48 -377 l3 -315 28 -56 c33 -69 99 -132 175 -167 49 -23 70 -27 152 -27 82 0 103 4 152 27 76 35 142 98 175 167 l28 56 0 327 c0 324 0 328 -22 349 -27 27 -75 29 -102 5 -19 -17 -20 -35 -23 -335 -3 -362 -3 -360 -93 -416 -42 -26 -58 -30 -121 -30 -64 0 -77 3 -115 30 -84 59 -84 58 -87 416 -3 283 -5 318 -20 332 -26 23 -55 28 -82 14z"/>
<path d="M2573 2750 c-54 -22 -54 -22 -51 -485 l3 -427 24 -19 c30 -25 76 -24 101 1 19 19 20 33 20 454 0 399 -1 435 -17 454 -22 25 -51 33 -80 22z"/>
<path d="M2885 2748 c-50 -27 -60 -80 -22 -116 22 -21 32 -22 221 -22 155 0 197 -3 193 -13 -2 -7 -100 -158 -216 -336 -244 -373 -244 -372 -235 -406 13 -53 24 -55 344 -55 l297 0 21 23 c27 29 28 67 3 98 -19 24 -23 24 -235 29 l-215 5 215 330 c119 182 223 344 231 362 21 42 4 87 -39 102 -42 15 -536 14 -563 -1z"/>
</g>
</svg>