<svg version="1.0" xmlns="http://www.w3.org/2000/svg" viewBox="0 0 512.000000 512.000000">
<g transform="translate(0.000000,512.000000) scale(0.100000,-0.100000)" stroke="none">
<path d="M3010 4816 l0 -304 -137 -4 c-133 -3 -141 -5 -208 -37 -92 -45 -171 -124 -216 -216 -33 -68 -34 -73 -34 -195 0 -120 1 -127 32 -191 58 -118 146 -197 268 -239 45 -16 84 -20 177 -20 l118 0 0 -300 0 -300 449 0 449 0 4 243 c3 221 5 245 23 275 58 96 192 96 250 0 18 -30 20 -54 23 -275 l4 -243 454 0 454 0 0 1055 0 1055 -1055 0 -1055 0 0 -304z m1810 -751 l0 -755 -154 0 -154 0 -4 138 c-3 132 -5 140 -37 207 -45 92 -124 171 -216 216 -68 33 -73 34 -195 34 -122 0 -127 -1 -195 -34 -92 -45 -171 -124 -216 -216 -32 -67 -34 -75 -37 -207 l-4 -138 -149 0 -149 0 0 299 0 299 -242 4 c-229 3 -245 4 -278 25 -95 59 -94 190 2 248 30 18 54 20 276 23 l242 4 0 304 0 304 755 0 755 0 0 -755z"/>
<path d="M0 1955 l0 -1955 1955 0 1955 0 0 1055 0 1055 -299 0 -299 0 -4 138 c-3 132 -5 140 -37 207 -45 92 -124 171 -216 216 -68 33 -73 34 -195 34 -122 0 -127 -1 -195 -34 -92 -45 -171 -124 -216 -216 -32 -67 -34 -75 -37 -207 l-4 -138 -149 0 -149 0 0 299 0 299 -242 4 c-222 3 -246 5 -276 23 -96 58 -96 192 0 250 30 18 54 20 276 23 l242 4 0 449 0 449 -1055 0 -1055 0 0 -1955z m1810 1506 l0 -149 -137 -4 c-133 -3 -141 -5 -208 -37 -92 -45 -171 -124 -216 -216 -33 -68 -34 -73 -34 -195 0 -120 1 -127 32 -191 58 -118 146 -197 268 -239 45 -16 84 -20 177 -20 l118 0 0 -150 0 -150 -299 0 -299 0 -4 -243 c-3 -228 -4 -244 -25 -277 -28 -46 -71 -70 -123 -70 -52 0 -95 24 -123 70 -21 33 -22 49 -25 278 l-4 242 -304 0 -304 0 0 750 0 750 755 0 755 0 0 -149z m1122 -1078 c16 -10 39 -34 51 -53 21 -33 22 -49 25 -277 l4 -243 299 0 299 0 0 -755 0 -755 -750 0 -750 0 0 154 0 154 138 4 c132 3 140 5 207 37 92 45 171 124 216 216 33 68 34 73 34 195 0 122 -1 127 -34 195 -45 92 -124 171 -216 216 -67 32 -75 34 -207 37 l-138 4 0 149 0 149 299 0 299 0 4 243 c3 226 4 244 24 275 44 69 130 93 196 55z m-2320 -710 c3 -131 5 -141 35 -204 58 -118 146 -196 269 -240 49 -17 77 -20 164 -17 95 3 112 7 175 38 92 44 171 123 216 215 32 67 34 75 37 208 l4 137 149 0 149 0 0 -299 0 -299 243 -4 c228 -3 244 -4 277 -25 46 -28 70 -71 70 -123 0 -52 -24 -95 -70 -123 -33 -21 -49 -22 -277 -25 l-243 -4 0 -304 0 -304 -755 0 -755 0 0 755 0 755 154 0 154 0 4 -137z"/>
</g>
</svg>