<svg version="1.0" xmlns="http://www.w3.org/2000/svg" width="512.000000pt" height="512.000000pt" viewBox="0 0 512.000000 512.000000" preserveAspectRatio="xMidYMid meet">

<g transform="translate(0.000000,512.000000) scale(0.100000,-0.100000)" stroke="none">
<path d="M2132 5104 c-13 -9 -81 -103 -153 -210 l-129 -194 -446 0 -445 0 -24 -25 -25 -24 0 -471 0 -471 25 -24 24 -25 469 0 c457 0 469 1 490 20 12 11 24 31 27 43 3 12 4 175 3 361 l-3 339 -82 -124 -83 -125 0 -172 0 -172 -350 0 -350 0 0 350 0 350 325 0 c179 0 325 -2 325 -5 0 -9 -233 -355 -239 -355 -4 0 -31 50 -61 111 -30 61 -64 117 -75 125 -51 36 -135 -6 -135 -66 0 -16 43 -114 95 -219 105 -211 121 -230 183 -215 35 9 54 34 400 552 305 458 362 548 362 578 0 68 -73 107 -128 68z"/>
<path d="M2499 4324 c-23 -24 -24 -32 -24 -145 0 -116 1 -119 28 -146 l27 -28 814 0 814 0 26 24 c25 24 26 28 26 148 0 118 -1 125 -25 148 l-24 25 -819 0 -819 0 -24 -26z"/>
<path d="M935 3455 l-25 -24 0 -471 0 -471 25 -24 24 -25 468 0 c493 1 486 0 511 47 17 31 17 915 0 946 -25 47 -18 46 -511 47 l-468 0 -24 -25z m843 -497 l2 -348 -350 0 -350 0 0 350 0 350 348 -2 347 -3 3 -347z"/>
<path d="M2499 3104 c-23 -24 -24 -32 -24 -144 0 -112 1 -120 24 -144 l24 -26 819 0 819 0 24 25 c24 23 25 30 25 145 0 115 -1 122 -25 145 l-24 25 -819 0 -819 0 -24 -26z"/>
<path d="M935 2235 l-25 -24 0 -471 0 -471 26 -24 27 -25 464 0 465 0 29 29 29 29 0 457 c0 467 -1 483 -39 512 -12 9 -132 12 -484 13 l-468 0 -24 -25z m843 -492 l-3 -348 -347 -3 -348 -2 0 350 0 350 350 0 350 0 -2 -347z"/>
<path d="M2544 1913 c-12 -2 -32 -15 -45 -29 -22 -24 -24 -33 -24 -144 0 -112 1 -120 24 -144 l24 -26 819 0 819 0 24 25 c24 23 25 30 25 148 0 120 -1 124 -26 148 l-26 24 -796 1 c-438 1 -807 0 -818 -3z"/>
<path d="M932 1017 c-22 -23 -22 -25 -22 -489 0 -257 3 -474 6 -483 17 -43 39 -45 519 -45 l457 0 29 29 29 29 0 465 0 464 -25 27 -24 26 -474 0 -474 0 -21 -23z m846 -494 l-3 -348 -347 -3 -348 -2 0 350 0 350 350 0 350 0 -2 -347z"/>
<path d="M2523 685 c-43 -19 -56 -65 -52 -189 4 -93 5 -99 32 -122 l28 -24 815 0 815 0 24 25 c24 23 25 30 25 148 0 120 -1 124 -26 148 l-26 24 -801 2 c-669 2 -807 0 -834 -12z"/>
</g>
</svg>