<svg version="1.0" xmlns="http://www.w3.org/2000/svg" width="512.000000pt" height="512.000000pt" viewBox="0 0 512.000000 512.000000" preserveAspectRatio="xMidYMid meet">

<g transform="translate(0.000000,512.000000) scale(0.100000,-0.100000)" fill="#03036e" stroke="none">
<path d="M1742 5109 c-47 -14 -109 -80 -122 -130 -7 -26 -10 -105 -8 -209 3 -161 4 -168 30 -207 15 -22 44 -51 65 -64 34 -22 52 -24 171 -27 l132 -4 0 -144 c0 -141 0 -144 -22 -148 -13 -3 -69 -14 -126 -26 -250 -51 -543 -181 -774 -343 -16 -10 -33 4 -140 110 -68 67 -136 127 -151 133 -45 16 -124 12 -165 -9 -45 -24 -244 -224 -266 -268 -18 -36 -21 -118 -6 -160 6 -15 66 -83 133 -151 106 -107 120 -124 110 -140 -59 -83 -137 -219 -189 -327 -262 -545 -271 -1184 -24 -1744 54 -125 136 -266 167 -291 36 -28 85 -26 122 6 47 39 43 87 -14 183 -159 273 -255 626 -255 945 0 965 721 1777 1680 1891 965 115 1862 -524 2074 -1476 25 -112 54 -364 44 -374 -3 -3 -45 6 -94 20 -49 14 -115 28 -146 32 -61 6 -68 14 -68 80 0 18 -9 79 -20 136 -124 644 -621 1139 -1272 1269 -162 32 -434 32 -595 0 -651 -130 -1145 -624 -1275 -1275 -32 -161 -32 -433 0 -594 130 -651 618 -1140 1272 -1274 97 -20 144 -24 300 -23 196 0 334 19 465 64 32 11 59 19 60 18 1 -2 19 -30 40 -63 21 -33 60 -88 86 -121 27 -34 49 -64 49 -67 0 -10 -219 -77 -315 -97 -455 -94 -943 -15 -1337 216 -98 57 -139 61 -180 15 -34 -38 -37 -87 -8 -124 12 -15 61 -49 111 -77 545 -307 1215 -353 1796 -124 l113 45 67 -41 c81 -49 194 -93 311 -122 112 -28 357 -31 470 -5 236 54 454 184 604 361 373 438 353 1073 -47 1481 -49 50 -111 106 -137 124 l-48 32 0 88 c0 198 -41 451 -105 646 -57 171 -178 411 -288 567 -10 16 4 33 110 140 67 68 127 136 133 151 16 45 12 124 -9 165 -24 45 -224 244 -268 266 -36 18 -118 21 -160 6 -15 -6 -83 -66 -151 -133 -107 -106 -124 -120 -140 -110 -242 170 -532 297 -793 347 -46 9 -94 19 -106 22 -23 4 -23 7 -23 148 l0 144 133 4 c118 3 136 5 170 27 21 13 50 42 65 64 27 40 27 41 27 232 0 191 0 192 -27 232 -15 22 -44 51 -65 64 l-38 24 -550 2 c-330 1 -563 -2 -583 -8z m1068 -314 l0 -125 -500 0 -500 0 0 125 0 125 500 0 500 0 0 -125z m-400 -460 l0 -135 -100 0 -100 0 0 135 0 135 100 0 100 0 0 -135z m-1590 -570 l95 -95 -88 -87 -87 -88 -97 97 -98 98 85 85 c46 47 87 85 90 85 3 0 48 -43 100 -95z m3170 10 l85 -85 -98 -98 -97 -97 -87 88 -88 87 95 95 c52 52 97 95 100 95 3 0 44 -38 90 -85z m-1780 -335 c0 -70 17 -111 55 -128 51 -23 107 -7 131 39 8 16 14 54 14 87 l0 58 68 -8 c220 -26 419 -100 601 -223 53 -36 107 -74 120 -85 l23 -20 -40 -44 c-60 -65 -67 -121 -22 -166 45 -45 101 -38 166 22 l44 40 20 -23 c38 -44 141 -202 170 -258 69 -139 133 -360 142 -490 l3 -45 -73 -12 c-344 -58 -649 -281 -804 -589 -116 -229 -148 -519 -83 -767 7 -29 12 -54 11 -56 -9 -8 -204 -52 -269 -59 l-77 -9 0 58 c0 68 -18 109 -55 126 -33 15 -57 15 -90 0 -37 -17 -55 -58 -55 -127 l0 -60 -37 5 c-104 15 -214 38 -287 61 -146 45 -331 145 -456 245 l-34 27 42 45 c60 65 67 121 22 166 -45 45 -101 38 -166 -22 l-45 -42 -24 30 c-89 107 -187 283 -234 417 -29 84 -63 232 -74 325 l-5 42 58 0 c71 0 107 15 126 51 18 35 18 63 0 98 -19 36 -55 51 -126 51 l-58 0 5 43 c32 273 144 543 308 741 l24 30 45 -42 c65 -60 121 -67 166 -22 45 45 38 101 -22 166 l-42 46 24 19 c71 55 204 141 268 173 128 64 311 118 477 139 17 2 33 5 38 6 4 0 7 -26 7 -59z m1825 -1470 c313 -81 560 -328 646 -645 18 -65 22 -107 22 -225 0 -118 -4 -160 -22 -225 -86 -317 -329 -561 -646 -646 -105 -29 -325 -32 -428 -6 -328 82 -580 328 -668 652 -32 115 -32 335 0 450 93 343 364 594 714 661 98 19 279 11 382 -16z" fill="#03036e"/>
<path d="M2203 2686 c-130 -42 -228 -167 -240 -305 -5 -54 -3 -60 25 -92 25 -28 37 -34 71 -34 56 0 91 36 102 104 14 88 70 141 149 141 104 0 178 -107 137 -200 -8 -19 -51 -75 -95 -123 -90 -100 -130 -170 -138 -243 -7 -56 11 -106 45 -124 25 -13 77 -13 102 0 23 13 49 61 49 93 0 32 38 86 122 176 95 100 122 160 123 271 0 72 -4 94 -27 142 -35 75 -98 142 -166 175 -66 32 -190 42 -259 19z" fill="#03036e"/>
<path d="M2274 1691 c-30 -13 -64 -59 -64 -88 0 -32 26 -80 49 -93 25 -13 77 -13 102 0 24 13 49 61 49 94 0 56 -83 109 -136 87z" fill="#03036e"/>
<path d="M4054 1610 c-44 -22 -97 -67 -208 -179 l-150 -150 -52 49 c-64 57 -124 80 -214 80 -113 0 -207 -58 -263 -164 -18 -33 -22 -58 -22 -131 0 -123 14 -146 204 -338 187 -189 231 -217 346 -217 124 0 149 18 461 332 171 172 281 290 295 318 34 64 34 205 1 267 -78 147 -253 206 -398 133z m197 -199 c23 -23 29 -38 29 -72 0 -43 -1 -44 -268 -311 l-268 -268 -45 0 c-45 0 -45 1 -202 158 -144 146 -157 161 -157 194 0 25 9 47 26 67 22 26 33 31 71 31 43 0 49 -4 133 -85 132 -127 115 -132 365 115 199 196 203 200 245 200 33 0 48 -6 71 -29z" fill="#03036e"/>
<path d="M873 783 c-70 -14 -97 -111 -46 -165 53 -55 151 -26 166 50 8 43 -17 91 -57 107 -20 8 -37 14 -38 14 -2 -1 -13 -4 -25 -6z" fill="#03036e"/>
</g>
</svg>