<svg version="1.0" xmlns="http://www.w3.org/2000/svg" width="512.000000pt" height="512.000000pt" viewBox="0 0 512.000000 512.000000" preserveAspectRatio="xMidYMid meet">

<g transform="translate(0.000000,512.000000) scale(0.100000,-0.100000)" fill="#00661a" stroke="none">
<path d="M480 4547 c-49 -16 -133 -102 -148 -153 -17 -60 -17 -2808 0 -2868 16 -55 99 -138 154 -154 31 -9 235 -12 806 -12 l766 0 -60 -240 -60 -240 -185 0 c-182 0 -184 0 -208 -25 -33 -32 -33 -78 0 -110 l24 -25 991 0 991 0 24 25 c33 32 33 78 0 110 -24 25 -26 25 -208 25 l-185 0 -60 240 -60 240 208 0 c195 0 209 1 234 21 20 16 26 29 26 59 0 30 -6 43 -26 59 l-27 21 -1474 0 -1474 0 -24 25 c-23 22 -25 32 -25 120 l0 95 1495 0 1496 0 24 25 c33 32 33 78 0 110 l-24 25 -1496 0 -1495 0 0 1215 0 1216 25 24 24 25 2031 0 2031 0 24 -25 25 -24 0 -1269 c0 -1269 0 -1269 21 -1296 29 -37 89 -37 118 0 21 27 21 27 21 1297 0 952 -3 1280 -12 1309 -6 22 -31 62 -55 88 -79 88 125 80 -2177 79 -1458 -1 -2051 -4 -2076 -12z m2478 -3427 l60 -240 -458 0 -458 0 60 240 60 240 338 0 338 0 60 -240z" fill="#00661a"/>
<path d="M1465 3909 c-294 -58 -531 -260 -619 -528 -99 -301 -28 -607 190 -825 156 -156 338 -231 564 -231 226 0 408 75 564 231 156 156 231 338 231 564 0 174 -36 298 -124 432 -113 173 -274 288 -481 345 -68 18 -258 25 -325 12z m270 -164 c216 -45 409 -223 478 -440 17 -55 22 -94 22 -185 0 -91 -5 -130 -22 -185 -63 -199 -229 -365 -428 -428 -99 -31 -271 -31 -370 0 -163 52 -309 175 -383 323 -95 189 -95 390 -2 576 132 262 417 399 705 339z" fill="#00661a"/>
<path d="M1942 3413 c-15 -16 -117 -133 -226 -261 l-199 -233 -142 141 c-123 122 -146 140 -174 140 -43 0 -81 -38 -81 -81 0 -29 21 -54 178 -211 97 -98 187 -181 200 -184 12 -4 32 -4 45 0 13 3 124 124 280 306 281 328 285 335 231 385 -36 34 -78 33 -112 -2z" fill="#00661a"/>
<path d="M3385 3909 c-294 -58 -531 -260 -619 -528 -99 -301 -28 -607 190 -825 156 -156 338 -231 564 -231 226 0 408 75 564 231 156 156 231 338 231 564 0 174 -36 298 -124 432 -113 173 -274 288 -481 345 -68 18 -258 25 -325 12z m270 -164 c216 -45 409 -223 478 -440 31 -99 31 -271 0 -370 -63 -199 -229 -365 -428 -428 -99 -31 -271 -31 -370 0 -163 52 -309 175 -383 323 -95 189 -95 390 -2 576 132 262 417 399 705 339z" fill="#00661a"/>
<path d="M3145 3495 c-16 -15 -25 -35 -25 -56 0 -28 18 -51 142 -176 l142 -143 -142 -143 c-124 -125 -142 -148 -142 -176 0 -43 38 -81 81 -81 28 0 51 18 176 142 l143 142 143 -142 c121 -120 148 -142 174 -142 42 0 83 40 83 81 0 28 -18 51 -142 176 l-142 143 142 143 c124 125 142 148 142 176 0 43 -38 81 -81 81 -28 0 -51 -18 -176 -142 l-143 -142 -143 142 c-125 124 -148 142 -176 142 -21 0 -41 -9 -56 -25z" fill="#00661a"/>
<path d="M3705 2135 l-25 -24 0 -591 0 -591 25 -24 c13 -14 36 -25 50 -25 21 0 170 78 261 137 21 13 27 5 169 -204 81 -120 156 -226 167 -235 11 -10 32 -18 46 -18 30 0 378 213 392 241 6 10 10 28 10 40 0 13 -64 121 -141 241 -93 144 -138 223 -132 229 5 5 66 42 134 82 94 55 126 79 133 100 23 64 27 61 -509 374 -326 190 -510 293 -528 293 -17 0 -38 -10 -52 -25z m513 -415 c182 -106 332 -196 332 -200 0 -5 -45 -34 -100 -65 -103 -59 -130 -84 -130 -121 0 -11 65 -122 144 -245 l145 -224 -67 -43 c-37 -24 -79 -49 -94 -57 l-27 -15 -152 225 c-183 270 -185 271 -296 202 -21 -13 -59 -35 -85 -50 l-48 -28 0 422 0 421 23 -14 c12 -8 172 -101 355 -208z" fill="#00661a"/>
</g>
</svg>