<svg version="1.0" xmlns="http://www.w3.org/2000/svg" width="512.000000pt" height="512.000000pt" viewBox="0 0 512.000000 512.000000" preserveAspectRatio="xMidYMid meet">

<g transform="translate(0.000000,512.000000) scale(0.100000,-0.100000)" stroke="none">
<path d="M186 5104 c-34 -11 -64 -31 -102 -68 -92 -92 -84 80 -84 -1921 0 -1759 0 -1761 20 -1783 28 -30 82 -30 110 0 20 22 20 24 20 1780 0 1943 -5 1797 63 1838 31 20 65 20 1943 20 l1911 0 34 -23 c54 -36 59 -55 59 -238 0 -153 2 -168 21 -193 26 -33 79 -36 110 -5 20 20 20 29 17 217 -3 169 -6 202 -22 232 -31 59 -96 119 -154 140 -52 20 -79 20 -1975 19 -1679 0 -1928 -2 -1971 -15z"/>
<path d="M555 4681 c-61 -11 -110 -38 -155 -88 -79 -85 -75 -47 -75 -708 l0 -590 28 -57 c30 -61 64 -95 131 -131 l41 -22 1630 0 1630 0 51 27 c56 29 93 68 127 132 22 41 22 42 22 636 0 585 0 596 -21 641 -27 58 -85 116 -143 143 l-46 21 -1590 1 c-875 1 -1608 -1 -1630 -5z m3218 -164 c16 -10 37 -32 47 -50 19 -31 20 -54 20 -582 0 -515 -1 -553 -18 -585 -10 -19 -34 -43 -53 -52 -32 -17 -129 -18 -1612 -18 -1775 0 -1631 -6 -1668 74 -17 38 -19 77 -19 579 0 571 1 578 48 620 11 10 33 22 48 27 16 5 738 8 1604 7 1500 -2 1577 -3 1603 -20z"/>
<path d="M991 4344 c-79 -21 -148 -62 -211 -124 -91 -92 -140 -208 -140 -335 0 -357 373 -587 692 -427 l77 39 42 -43 c53 -54 95 -60 128 -18 32 41 26 69 -23 122 l-45 48 35 69 c92 188 55 396 -95 545 -99 98 -202 140 -336 139 -38 0 -94 -7 -124 -15z m243 -154 c121 -46 208 -169 210 -297 0 -65 -26 -173 -43 -173 -4 0 -23 16 -42 36 -49 52 -81 66 -117 53 -28 -10 -52 -44 -52 -75 0 -8 23 -39 50 -68 28 -29 50 -56 50 -60 0 -4 -16 -14 -36 -22 -143 -60 -305 -19 -396 101 -140 183 -51 448 172 516 50 15 148 9 204 -11z"/>
<path d="M1820 4340 c-20 -20 -21 -30 -18 -363 l3 -342 27 -46 c38 -65 119 -134 186 -159 70 -27 185 -29 252 -5 65 23 147 82 180 129 55 81 60 120 60 453 l0 304 -25 24 c-30 31 -77 33 -105 5 -19 -19 -20 -33 -20 -324 0 -191 -4 -315 -11 -333 -48 -129 -240 -167 -347 -69 -46 41 -47 47 -52 384 l-5 324 -24 19 c-30 25 -76 24 -101 -1z"/>
<path d="M2711 4341 c-11 -11 -23 -35 -26 -53 -3 -18 -5 -214 -3 -435 3 -399 3 -403 25 -424 27 -27 75 -29 103 -4 19 18 20 30 20 457 0 425 -1 439 -20 458 -25 25 -74 26 -99 1z"/>
<path d="M3021 4334 c-26 -33 -27 -65 -2 -95 19 -24 23 -24 220 -27 111 -2 201 -5 201 -7 0 -2 -102 -160 -227 -352 -159 -244 -226 -356 -226 -376 0 -16 9 -38 22 -50 21 -22 26 -22 322 -22 l301 0 19 24 c25 30 24 76 -1 101 -19 19 -33 20 -235 20 -118 0 -215 2 -215 4 0 3 104 163 230 357 127 194 230 362 230 374 0 12 -9 34 -21 49 l-20 26 -289 0 -289 0 -20 -26z"/>
<path d="M4181 4253 l-21 -26 2 -1921 c3 -2165 -5 -1961 82 -2091 l44 -65 -1946 2 -1947 3 -56 28 c-66 32 -132 99 -162 165 -21 45 -22 63 -25 378 -3 315 -4 332 -23 353 -27 29 -81 28 -109 -1 -19 -21 -20 -34 -20 -338 0 -348 5 -384 61 -491 38 -70 126 -157 197 -193 118 -60 -28 -56 2302 -56 2354 0 2188 -4 2312 62 68 36 158 128 193 199 53 104 55 125 55 644 0 470 0 482 -20 503 -28 29 -82 30 -109 0 -20 -20 -20 -37 -23 -517 -3 -484 -4 -497 -25 -543 -30 -66 -96 -133 -162 -165 -48 -24 -68 -28 -141 -27 -67 0 -95 5 -131 23 -75 36 -125 86 -161 159 l-33 67 -3 1512 -2 1513 290 0 290 0 38 -34 37 -34 5 -841 c5 -780 6 -842 22 -861 25 -28 81 -27 108 2 20 22 20 26 18 873 l-3 850 -29 53 c-31 55 -80 101 -132 124 -21 9 -118 14 -334 18 l-305 5 -5 333 c-5 316 -6 334 -24 348 -33 23 -82 18 -105 -13z"/>
<path d="M374 2740 c-50 -20 -54 -39 -54 -267 0 -136 4 -221 11 -237 20 -44 45 -47 368 -44 l303 3 19 24 c17 21 19 42 19 242 0 238 -4 262 -53 279 -36 12 -582 13 -613 0z m516 -270 l0 -130 -210 0 -210 0 0 123 c0 68 3 127 7 130 3 4 98 7 210 7 l203 0 0 -130z"/>
<path d="M1344 2740 c-26 -10 -54 -48 -54 -71 0 -9 9 -28 21 -43 20 -26 21 -26 168 -26 172 0 191 7 191 69 0 66 -21 76 -174 78 -72 1 -141 -2 -152 -7z"/>
<path d="M1925 2739 c-49 -27 -60 -80 -25 -117 l21 -22 749 0 c737 0 750 0 770 20 25 25 26 71 1 101 l-19 24 -739 2 c-524 2 -744 -1 -758 -8z"/>
<path d="M1327 2329 c-47 -28 -40 -107 11 -128 19 -8 274 -11 875 -9 l849 3 19 24 c25 30 24 62 -2 95 l-20 26 -857 0 c-580 -1 -863 -4 -875 -11z"/>
<path d="M364 2008 c-39 -18 -44 -49 -44 -273 0 -212 0 -214 24 -242 l24 -28 312 0 312 0 24 28 c24 28 24 30 24 253 l0 225 -25 24 -24 25 -303 -1 c-187 0 -311 -4 -324 -11z m524 -265 l-3 -128 -205 0 -205 0 -3 128 -3 127 211 0 211 0 -3 -127z"/>
<path d="M1333 2008 c-48 -23 -51 -103 -4 -127 11 -6 80 -11 160 -11 128 0 143 2 161 20 33 33 30 75 -6 108 -23 21 -34 22 -157 21 -73 0 -142 -5 -154 -11z"/>
<path d="M1905 1995 c-32 -31 -33 -74 -2 -103 l23 -22 745 0 746 0 21 23 c31 33 29 80 -4 106 -26 21 -33 21 -766 21 l-739 0 -24 -25z"/>
<path d="M1311 1584 c-27 -35 -26 -57 3 -91 l24 -28 829 -3 c455 -2 843 0 861 3 38 7 72 40 72 71 0 12 -9 33 -21 48 l-20 26 -864 0 -864 0 -20 -26z"/>
<path d="M349 1271 c-24 -19 -24 -19 -24 -256 0 -237 0 -237 24 -256 22 -18 43 -19 336 -19 l314 0 20 26 c20 25 21 39 21 251 l0 224 -25 24 -24 25 -309 0 c-290 0 -311 -1 -333 -19z m541 -256 l0 -125 -210 0 -210 0 0 125 0 125 210 0 210 0 0 -125z"/>
<path d="M1327 1279 c-46 -27 -41 -105 9 -128 14 -6 79 -11 154 -11 120 0 131 2 154 23 36 32 39 74 6 107 -18 18 -33 20 -162 20 -81 0 -151 -5 -161 -11z"/>
<path d="M1902 1267 c-29 -31 -28 -72 3 -102 l24 -25 739 0 c733 0 740 0 766 21 34 27 36 79 4 109 -22 20 -31 20 -768 20 l-747 0 -21 -23z"/>
<path d="M1333 878 c-48 -23 -51 -103 -4 -127 13 -8 291 -11 875 -11 l855 0 20 26 c26 33 27 65 2 95 l-19 24 -854 2 c-585 1 -860 -2 -875 -9z"/>
</g>
</svg>