<svg version="1.0" xmlns="http://www.w3.org/2000/svg" width="512.000000pt" height="512.000000pt" viewBox="0 0 512.000000 512.000000" preserveAspectRatio="xMidYMid meet">
<metadata fill="#005766">
Created by potrace 1.16, written by Peter Selinger 2001-2019
</metadata>
<g transform="translate(0.000000,512.000000) scale(0.100000,-0.100000)" fill="#005766" stroke="none">
<path d="M1940 5105 c-764 -116 -1381 -657 -1595 -1400 -129 -446 -87 -948 114 -1370 63 -132 99 -192 201 -335 115 -161 174 -304 199 -484 7 -49 11 -339 11 -797 l0 -719 1055 0 1055 0 0 276 c0 302 4 324 60 364 16 12 184 58 431 120 231 58 428 112 459 127 109 53 211 183 239 304 6 25 11 186 11 364 l1 320 334 165 c199 98 333 170 331 177 -3 6 -153 233 -334 505 l-329 493 -7 90 c-38 489 -224 905 -553 1238 -285 289 -628 472 -1028 549 -144 27 -510 34 -655 13z m450 -300 c250 -19 526 -117 760 -272 150 -99 345 -293 442 -438 173 -259 278 -600 278 -902 l0 -73 260 -390 c143 -214 260 -393 260 -398 0 -4 -117 -66 -260 -137 l-260 -130 0 -400 c0 -371 -1 -403 -19 -435 -10 -19 -29 -42 -42 -52 -13 -9 -206 -63 -428 -118 -222 -56 -428 -112 -458 -126 -115 -55 -215 -184 -242 -312 -6 -29 -11 -114 -11 -187 l0 -135 -744 0 -745 0 -4 633 c-3 594 -5 637 -24 722 -46 200 -111 348 -223 505 -100 140 -138 202 -191 314 -313 656 -149 1440 405 1929 265 233 613 381 956 406 103 8 141 7 290 -4z" fill="#005766"/>
<path d="M2085 3903 c-78 -28 -135 -66 -193 -127 -90 -95 -122 -191 -122 -362 l0 -94 155 0 155 0 0 88 c0 122 31 177 116 201 67 19 156 -41 170 -113 11 -59 -4 -87 -85 -166 -94 -90 -143 -163 -178 -261 -22 -62 -27 -97 -31 -211 l-5 -138 157 0 156 0 0 98 c1 146 30 216 123 288 20 16 57 55 81 87 177 230 98 560 -164 686 -69 33 -83 36 -180 39 -81 2 -116 -2 -155 -15z" fill="#005766"/>
<path d="M2072 2268 l3 -153 150 0 150 0 3 153 3 152 -156 0 -156 0 3 -152z" fill="#005766"/>
</g>
</svg>