<svg version="1.0" xmlns="http://www.w3.org/2000/svg" width="512.000000pt" height="512.000000pt" viewBox="0 0 512.000000 512.000000" preserveAspectRatio="xMidYMid meet">
<metadata fill="#554236">
Created by potrace 1.16, written by Peter Selinger 2001-2019
</metadata>
<g transform="translate(0.000000,512.000000) scale(0.100000,-0.100000)" fill="#554236" stroke="none">
<path d="M2355 5114 c-541 -78 -981 -373 -1240 -833 -141 -251 -207 -511 -206 -816 0 -440 155 -821 465 -1145 204 -213 297 -354 366 -560 55 -164 62 -233 70 -720 l7 -455 26 -74 c45 -125 93 -199 191 -296 72 -72 109 -99 176 -133 117 -58 218 -82 350 -82 132 0 232 23 350 82 69 34 103 60 180 138 78 77 104 111 138 180 76 153 82 195 82 579 0 524 18 670 108 880 72 165 157 284 332 466 330 342 483 760 458 1250 -37 737 -571 1356 -1306 1516 -77 17 -140 22 -307 24 -115 2 -223 1 -240 -1z m430 -320 c405 -64 778 -334 968 -701 60 -117 111 -271 133 -401 24 -152 16 -400 -20 -537 -65 -254 -165 -427 -375 -650 -71 -75 -159 -178 -195 -228 -124 -174 -226 -415 -261 -617 -10 -52 -19 -105 -21 -117 l-4 -23 -450 0 -450 0 -4 23 c-2 12 -11 65 -21 117 -35 202 -137 443 -261 617 -36 50 -124 153 -195 228 -181 192 -279 347 -347 550 -86 259 -85 575 4 844 169 509 636 872 1169 909 126 9 204 5 330 -14z m225 -3796 c-1 -269 -10 -351 -50 -435 -40 -86 -128 -174 -217 -216 -64 -30 -74 -32 -183 -32 -109 0 -119 2 -183 32 -89 42 -177 130 -217 216 -40 84 -49 166 -50 435 l0 222 450 0 450 0 0 -222z" fill="#554236"/>
<path d="M2411 4201 c-120 -45 -207 -124 -264 -240 -30 -63 -32 -73 -35 -203 l-4 -138 150 0 149 0 5 93 c4 67 10 103 24 126 74 125 265 75 264 -69 -1 -59 -11 -76 -94 -152 -87 -79 -139 -158 -171 -260 -21 -67 -25 -98 -25 -209 l0 -129 148 0 149 0 6 111 c9 147 24 179 136 288 67 66 96 103 122 156 33 68 34 73 34 195 0 122 -1 127 -34 195 -45 92 -124 171 -216 215 -65 32 -79 35 -180 37 -90 3 -120 0 -164 -16z" fill="#554236"/>
<path d="M2410 2570 l0 -150 150 0 150 0 0 150 0 150 -150 0 -150 0 0 -150z" fill="#554236"/>
<path d="M255 4570 l-110 -110 228 -228 227 -227 112 113 113 112 -225 225 c-124 124 -227 225 -230 225 -3 0 -55 -50 -115 -110z" fill="#554236"/>
<path d="M4520 4455 l-225 -225 113 -112 112 -113 227 227 228 228 -110 110 c-60 60 -112 110 -115 110 -3 0 -106 -101 -230 -225z" fill="#554236"/>
<path d="M0 3470 l0 -150 310 0 310 0 0 150 0 150 -310 0 -310 0 0 -150z" fill="#554236"/>
<path d="M4500 3470 l0 -150 310 0 310 0 0 150 0 150 -310 0 -310 0 0 -150z" fill="#554236"/>
<path d="M377 2712 c-119 -119 -217 -222 -217 -227 0 -13 202 -215 215 -215 6 0 109 99 230 220 l220 220 -110 110 c-60 60 -112 110 -115 110 -3 0 -103 -98 -223 -218z" fill="#554236"/>
<path d="M4405 2820 l-110 -110 220 -220 c121 -121 224 -220 230 -220 13 0 215 202 215 215 0 10 -430 445 -440 445 -3 0 -55 -50 -115 -110z" fill="#554236"/>
</g>
</svg>