<svg version="1.0" xmlns="http://www.w3.org/2000/svg" width="512.000000pt" height="512.000000pt" viewBox="0 0 512.000000 512.000000" preserveAspectRatio="xMidYMid meet">
<metadata fill="#042559">
Created by potrace 1.16, written by Peter Selinger 2001-2019
</metadata>
<g transform="translate(0.000000,512.000000) scale(0.100000,-0.100000)" fill="#042559" stroke="none">
<path d="M160 5107 c-49 -16 -133 -102 -148 -153 -9 -30 -12 -183 -12 -565 0 -594 -3 -567 83 -646 80 -74 83 -74 664 -71 l508 3 54 30 c54 30 83 61 117 125 18 33 19 67 19 570 0 530 0 535 -22 575 -12 22 -39 57 -60 77 -69 67 -77 68 -422 68 l-310 0 -20 -26 c-26 -34 -27 -64 -1 -97 l21 -26 289 -3 c275 -3 290 -4 317 -24 53 -40 53 -34 53 -542 0 -393 -2 -479 -15 -508 -26 -64 -28 -64 -557 -64 -509 0 -502 0 -542 53 -21 28 -21 39 -24 496 -3 504 -1 526 48 563 16 12 53 22 99 27 83 8 101 23 101 78 0 57 -27 73 -122 72 -46 -1 -99 -6 -118 -12z" fill="#042559"/>
<path d="M2964 5106 c-49 -22 -115 -86 -138 -136 -20 -43 -21 -62 -24 -548 -3 -553 -2 -568 56 -648 16 -21 53 -52 83 -69 l54 -30 535 0 c533 0 535 0 576 22 56 30 103 79 128 133 20 44 21 59 21 570 0 584 3 558 -70 638 -20 23 -55 50 -79 61 -41 20 -57 21 -577 21 -429 -1 -540 -3 -565 -14z m1055 -149 c19 -7 44 -25 55 -40 21 -28 21 -37 21 -516 0 -536 1 -526 -60 -556 -50 -23 -961 -23 -1010 1 -65 31 -65 29 -65 557 l0 474 23 34 c13 19 38 39 57 46 49 17 931 17 979 0z" fill="#042559"/>
<path d="M3479 4787 c-108 -31 -203 -112 -253 -217 -29 -60 -31 -73 -31 -175 0 -101 2 -115 29 -170 38 -77 115 -153 191 -190 50 -24 76 -29 155 -33 117 -5 184 17 254 82 38 35 46 49 46 78 0 78 -79 111 -137 56 -45 -42 -87 -58 -150 -58 -159 0 -276 173 -219 324 18 47 73 108 121 134 47 25 160 22 213 -5 59 -32 105 -30 131 3 67 85 -40 173 -218 180 -52 2 -104 -1 -132 -9z" fill="#042559"/>
<path d="M660 4777 c-27 -28 -270 -660 -270 -704 0 -45 30 -73 78 -73 48 0 63 16 92 93 l22 58 141 -3 141 -3 23 -60 c27 -70 43 -85 93 -85 39 0 63 18 74 57 10 33 -236 690 -270 721 -34 30 -94 30 -124 -1z m99 -352 c16 -44 32 -88 36 -97 6 -16 -1 -18 -73 -18 l-80 0 30 78 c16 42 34 88 39 101 5 13 11 22 14 20 2 -3 17 -40 34 -84z" fill="#042559"/>
<path d="M1633 4774 c-21 -21 -24 -32 -20 -62 12 -68 5 -67 334 -70 204 -2 305 1 324 8 52 22 61 103 16 135 -18 12 -73 15 -325 15 l-303 0 -26 -26z" fill="#042559"/>
<path d="M4441 4774 c-26 -33 -27 -75 -2 -105 l19 -24 304 -3 c297 -3 305 -2 331 18 34 27 38 89 7 120 -19 19 -33 20 -329 20 l-310 0 -20 -26z" fill="#042559"/>
<path d="M1652 4470 c-45 -18 -55 -88 -17 -125 24 -25 25 -25 230 -25 192 0 206 1 225 20 31 31 27 93 -6 119 -25 20 -39 21 -218 20 -105 0 -201 -4 -214 -9z" fill="#042559"/>
<path d="M4445 4455 c-16 -15 -25 -36 -25 -55 0 -19 9 -40 25 -55 24 -25 25 -25 228 -25 200 0 204 0 225 23 32 34 30 89 -4 116 -25 20 -40 21 -226 21 -198 0 -199 0 -223 -25z" fill="#042559"/>
<path d="M1631 4124 c-12 -15 -21 -37 -21 -49 0 -12 9 -34 21 -49 l20 -26 213 0 c242 0 246 1 246 77 0 71 -7 73 -248 73 l-211 0 -20 -26z" fill="#042559"/>
<path d="M4440 4128 c-11 -12 -20 -35 -20 -53 0 -18 9 -41 20 -53 20 -21 28 -22 230 -22 197 0 211 1 230 20 12 12 20 33 20 55 0 22 -8 43 -20 55 -19 19 -33 20 -230 20 -202 0 -210 -1 -230 -22z" fill="#042559"/>
<path d="M190 3501 c-75 -23 -141 -80 -171 -146 -17 -37 -19 -78 -19 -570 0 -512 1 -532 21 -575 25 -55 62 -95 114 -123 36 -20 60 -22 244 -27 l203 -5 77 -250 78 -250 -66 -6 c-151 -13 -250 -120 -251 -271 0 -57 18 -126 138 -515 77 -246 147 -464 157 -483 38 -76 91 -133 188 -205 83 -62 107 -75 138 -75 47 0 79 30 79 74 -1 41 -10 51 -116 129 -89 65 -132 113 -154 172 -47 124 -270 874 -270 907 0 32 7 47 34 74 29 29 41 34 80 34 39 0 52 -5 81 -32 30 -30 41 -57 104 -263 39 -126 71 -236 71 -243 0 -7 -11 -35 -25 -62 -30 -60 -31 -80 -4 -114 27 -35 86 -37 116 -4 33 38 83 136 83 164 0 15 -110 383 -244 818 -310 1002 -280 897 -262 940 17 41 68 76 109 76 37 0 80 -23 100 -53 9 -14 104 -310 212 -658 107 -348 202 -643 210 -656 12 -18 25 -23 59 -23 45 0 68 16 80 56 4 13 -31 140 -94 345 -92 296 -100 327 -90 361 24 85 122 116 189 61 30 -26 40 -53 131 -347 57 -184 107 -327 117 -337 47 -45 133 -14 133 48 0 15 -29 123 -65 239 -36 117 -65 226 -65 243 0 69 93 129 159 101 54 -22 68 -51 136 -270 37 -118 73 -225 81 -238 22 -34 95 -32 123 4 27 35 27 40 -14 169 -42 134 -44 173 -9 214 37 44 91 58 138 36 21 -10 44 -28 52 -40 8 -13 44 -116 79 -230 36 -115 72 -216 81 -226 24 -26 88 -25 114 1 11 11 20 33 20 49 0 48 -125 437 -157 489 -79 128 -268 168 -390 82 -24 -16 -43 -25 -43 -20 0 19 -84 101 -125 123 -32 17 -57 22 -125 22 -89 0 -128 -13 -177 -58 -13 -11 -23 -15 -23 -9 0 16 -77 100 -98 107 -16 4 -17 50 -17 532 l0 528 -30 54 c-16 29 -45 66 -65 82 -69 58 -85 59 -634 58 -276 0 -512 -4 -526 -8z m1047 -171 c21 -12 36 -32 43 -57 7 -26 10 -187 8 -506 l-3 -468 -53 -18 c-30 -10 -66 -28 -81 -39 l-28 -20 -60 196 c-34 108 -63 218 -67 245 -7 54 -28 101 -63 138 -24 26 -24 27 -9 73 24 69 20 124 -11 187 -52 100 -139 135 -326 127 -152 -6 -141 23 -145 -389 l-3 -341 30 -61 c16 -34 35 -81 41 -105 6 -24 14 -50 17 -58 4 -12 -19 -14 -152 -14 l-157 0 -28 28 c-19 19 -30 44 -35 73 -3 24 -5 250 -3 501 l3 456 25 27 c14 15 34 31 45 35 11 5 236 9 500 9 459 1 481 0 512 -19z m-476 -329 c25 -31 24 -59 -3 -88 -18 -20 -31 -23 -90 -23 l-68 0 0 71 0 71 71 -4 c60 -3 74 -8 90 -27z" fill="#042559"/>
<path d="M2994 3499 c-59 -17 -126 -71 -158 -129 l-31 -55 0 -530 0 -530 23 -47 c29 -58 97 -120 150 -136 28 -9 189 -12 558 -12 l519 0 50 24 c28 12 65 40 84 61 68 78 66 58 69 604 2 335 -1 511 -8 547 -16 76 -63 141 -130 178 l-55 31 -282 3 -283 3 -25 -25 c-33 -33 -33 -79 0 -111 l24 -25 252 0 c202 0 257 -3 283 -15 63 -30 61 -14 64 -530 2 -317 0 -482 -8 -507 -6 -20 -22 -46 -37 -57 -25 -21 -37 -21 -522 -21 -443 0 -499 2 -520 16 -50 35 -51 49 -51 550 0 411 2 470 16 500 24 50 59 64 154 64 73 0 83 3 105 25 16 15 25 36 25 55 0 19 -9 40 -25 55 -22 23 -31 25 -117 24 -51 0 -107 -5 -124 -10z" fill="#042559"/>
<path d="M1664 3180 c-28 -11 -54 -48 -54 -76 0 -12 9 -33 21 -48 l20 -26 313 0 c290 0 314 1 329 18 30 33 32 75 4 108 l-25 29 -294 2 c-161 1 -303 -2 -314 -7z" fill="#042559"/>
<path d="M3274 3176 c-17 -8 -34 -21 -38 -31 -3 -9 -6 -174 -6 -366 l0 -350 25 -24 c23 -24 29 -25 153 -25 148 0 209 14 274 63 214 162 192 592 -36 706 -80 39 -305 56 -372 27z m294 -170 c142 -73 132 -391 -15 -452 -18 -8 -62 -14 -98 -14 l-65 0 0 246 0 247 74 -6 c40 -3 87 -12 104 -21z" fill="#042559"/>
<path d="M4464 3176 c-50 -22 -61 -87 -21 -124 23 -22 29 -22 328 -22 350 0 349 0 349 74 0 31 -6 48 -21 62 -20 18 -42 19 -313 21 -230 2 -298 0 -322 -11z" fill="#042559"/>
<path d="M1635 2835 c-26 -25 -29 -42 -19 -83 12 -45 48 -52 252 -52 176 0 191 1 216 21 33 26 37 88 6 119 -19 19 -33 20 -225 20 -205 0 -206 0 -230 -25z" fill="#042559"/>
<path d="M4441 2834 c-26 -33 -27 -75 -2 -105 19 -24 23 -24 225 -27 l206 -3 25 25 c33 33 34 84 2 114 -22 21 -32 22 -229 22 l-207 0 -20 -26z" fill="#042559"/>
<path d="M1635 2515 c-16 -15 -25 -36 -25 -55 0 -19 9 -40 25 -55 24 -25 25 -25 228 -25 191 0 205 1 225 20 33 31 30 92 -4 119 -25 20 -40 21 -226 21 -198 0 -199 0 -223 -25z" fill="#042559"/>
<path d="M4445 2515 c-16 -15 -25 -36 -25 -55 0 -19 9 -40 25 -55 24 -25 25 -25 228 -25 200 0 204 0 225 23 32 34 30 89 -4 116 -25 20 -40 21 -226 21 -198 0 -199 0 -223 -25z" fill="#042559"/>
<path d="M2572 1247 c-32 -34 -28 -65 29 -248 50 -164 50 -164 63 -379 l13 -215 58 -185 c31 -102 64 -193 73 -202 21 -25 93 -24 115 0 27 30 20 78 -37 263 l-53 174 -11 205 c-11 205 -11 205 -62 370 -61 202 -68 218 -91 230 -31 17 -74 11 -97 -13z" fill="#042559"/>
</g>
</svg>