<svg version="1.0" xmlns="http://www.w3.org/2000/svg" viewBox="0 0 512.000000 512.000000">
<g transform="translate(0.000000,512.000000) scale(0.100000,-0.100000)" stroke="none">
<path d="M1875 5114 c-432 -21 -549 -27 -730 -40 -391 -27 -648 -54 -716 -74 -166 -49 -294 -188 -333 -362 -25 -108 -68 -553 -86 -878 -13 -234 -13 -910 0 -1140 24 -431 68 -843 101 -938 25 -73 69 -140 127 -194 104 -97 196 -128 445 -148 86 -7 157 -16 157 -21 0 -28 -61 -169 -107 -247 -61 -102 -77 -156 -67 -217 14 -86 83 -170 159 -195 84 -28 305 11 449 78 195 91 377 273 468 468 l31 67 59 -7 c32 -3 282 -9 556 -12 552 -7 570 -6 598 48 13 26 14 38 5 69 -7 21 -20 43 -31 49 -11 6 -126 10 -292 10 -150 0 -434 5 -631 11 -312 9 -362 8 -382 -5 -13 -8 -36 -48 -55 -96 -101 -251 -305 -428 -563 -490 -104 -25 -149 -25 -170 -2 -25 27 -21 59 12 111 84 131 150 317 154 433 3 96 3 96 -279 124 -135 13 -260 30 -286 39 -64 22 -141 94 -172 158 -30 64 -48 189 -80 562 -42 476 -47 1267 -12 1700 32 388 62 620 89 677 42 92 110 153 199 179 63 18 579 61 1103 91 300 18 1619 18 1930 0 449 -25 903 -61 1049 -83 122 -17 204 -78 253 -186 27 -59 58 -295 88 -678 36 -450 31 -1229 -11 -1700 -31 -353 -52 -502 -79 -560 -32 -66 -108 -137 -171 -159 l-45 -15 -51 39 c-104 83 -247 146 -385 170 l-73 13 0 52 0 52 52 5 c40 4 57 11 75 32 31 37 31 89 -2 121 -24 25 -26 25 -209 25 -101 0 -192 -3 -201 -6 -8 -4 -22 -19 -30 -35 -36 -70 -1 -129 83 -137 l52 -5 0 -52 0 -52 -62 -12 c-126 -24 -254 -78 -351 -147 l-49 -35 -68 65 c-58 57 -73 66 -104 66 -52 0 -86 -36 -86 -91 0 -37 6 -48 64 -107 l64 -67 -29 -35 c-43 -51 -116 -203 -140 -295 -31 -113 -32 -336 -1 -446 108 -396 449 -659 853 -659 245 0 439 75 606 234 200 189 294 422 280 693 -5 106 -6 108 -37 136 -27 24 -39 28 -68 23 -20 -3 -45 -15 -56 -26 -19 -19 -21 -31 -18 -128 4 -142 -16 -241 -73 -358 -81 -166 -234 -301 -408 -361 -75 -26 -94 -28 -222 -28 -127 0 -147 3 -220 28 -353 124 -551 487 -460 842 55 216 229 406 447 487 71 27 100 32 203 35 89 4 138 1 190 -11 95 -23 217 -85 295 -151 36 -31 74 -58 86 -61 30 -8 147 22 212 54 107 52 201 159 241 273 34 101 78 513 102 963 15 289 6 1082 -15 1346 -23 285 -55 576 -72 649 -39 171 -166 310 -330 361 -82 25 -497 63 -1039 96 -240 14 -1571 28 -1780 18z"/>
<path d="M3803 4436 c-101 -33 -186 -107 -225 -194 -11 -26 -23 -79 -25 -119 -5 -67 -4 -73 20 -97 26 -26 74 -34 112 -20 22 9 45 56 45 93 0 125 144 208 265 152 48 -22 69 -44 90 -94 38 -90 14 -153 -92 -240 -121 -100 -162 -170 -165 -282 -2 -55 1 -68 22 -90 18 -19 33 -25 65 -25 55 0 83 29 91 96 10 71 25 95 100 155 134 107 180 197 172 338 -8 143 -80 251 -206 309 -69 31 -201 40 -269 18z"/>
<path d="M935 4248 c-22 -26 -26 -39 -21 -67 8 -48 35 -72 89 -78 92 -11 137 19 137 91 0 63 -31 86 -115 86 -59 0 -65 -2 -90 -32z"/>
<path d="M1485 4255 c-36 -35 -34 -88 4 -126 l30 -29 851 2 852 3 24 28 c35 41 29 100 -15 134 -12 10 -214 12 -869 13 l-853 0 -24 -25z"/>
<path d="M943 3576 c-22 -19 -28 -32 -28 -66 0 -62 36 -90 116 -90 77 0 109 27 109 90 0 63 -32 90 -109 90 -49 0 -65 -4 -88 -24z"/>
<path d="M1489 3571 c-46 -46 -38 -110 18 -139 16 -9 243 -12 863 -12 l842 0 29 29 c39 40 39 82 0 122 l-29 29 -847 0 -847 0 -29 -29z"/>
<path d="M3874 3376 c-54 -24 -65 -95 -21 -143 15 -17 32 -23 62 -23 55 0 85 31 85 86 -1 45 -16 69 -54 84 -34 12 -34 12 -72 -4z"/>
<path d="M964 2896 c-57 -26 -69 -102 -22 -146 17 -16 35 -20 88 -20 57 0 70 3 88 23 32 33 30 96 -3 127 -30 28 -106 37 -151 16z"/>
<path d="M1514 2900 c-56 -22 -72 -103 -29 -145 l24 -25 1229 0 1229 0 20 23 c45 50 31 125 -27 146 -40 13 -2412 15 -2446 1z"/>
<path d="M949 2207 c-50 -39 -48 -115 4 -147 52 -32 143 -23 173 18 23 29 17 95 -9 120 -19 18 -35 22 -88 22 -35 0 -71 -6 -80 -13z"/>
<path d="M1485 2195 c-33 -32 -33 -84 -1 -122 l24 -28 877 0 877 0 24 28 c32 38 32 90 -1 122 l-24 25 -876 0 -876 0 -24 -25z"/>
<path d="M3610 1153 c-53 -19 -76 -84 -49 -135 17 -31 404 -218 452 -218 73 0 115 84 70 139 -20 24 -417 221 -443 220 -8 0 -22 -3 -30 -6z"/>
</g>
</svg>