<svg version="1.0" xmlns="http://www.w3.org/2000/svg" width="512.000000pt" height="512.000000pt" viewBox="0 0 512.000000 512.000000" preserveAspectRatio="xMidYMid meet">
<metadata fill="#490a3d">
Created by potrace 1.16, written by Peter Selinger 2001-2019
</metadata>
<g transform="translate(0.000000,512.000000) scale(0.100000,-0.100000)" fill="#490a3d" stroke="none">
<path d="M965 5100 c-239 -51 -448 -163 -615 -330 -148 -149 -260 -342 -317 -545 -26 -94 -27 -112 -27 -305 0 -193 1 -211 27 -305 124 -449 480 -782 936 -875 123 -25 341 -27 458 -5 43 8 79 15 81 15 1 0 2 -144 2 -320 l0 -320 -87 0 c-49 0 -111 -6 -139 -14 -129 -34 -255 -135 -318 -255 -51 -99 -60 -154 -53 -343 7 -190 35 -344 98 -533 65 -196 132 -318 355 -654 l207 -311 694 0 694 0 58 122 c152 321 250 674 281 1018 7 70 10 239 8 385 l-3 260 -34 70 c-45 92 -124 171 -216 216 l-70 34 -287 3 -288 3 0 575 c0 548 -1 577 -20 631 -11 31 -31 73 -44 94 l-25 36 29 84 c63 184 79 437 39 632 -97 480 -484 858 -963 942 -125 21 -346 19 -461 -5z m403 -301 c35 -5 101 -23 146 -40 286 -103 508 -360 571 -659 27 -129 15 -348 -24 -452 -9 -25 -12 -26 -118 -30 -98 -3 -115 -7 -178 -38 -92 -44 -171 -123 -215 -215 -30 -62 -35 -82 -39 -180 l-6 -109 -59 -18 c-81 -25 -217 -35 -325 -26 -382 33 -717 332 -796 708 -19 92 -19 268 0 360 57 270 249 509 507 629 169 79 338 101 536 70z m664 -1506 c16 -10 39 -34 51 -53 22 -35 22 -35 25 -732 l3 -697 392 -3 c371 -3 394 -4 425 -23 18 -11 43 -36 55 -55 21 -34 22 -44 20 -263 -4 -407 -59 -707 -191 -1039 l-49 -123 -509 -2 -509 -3 -150 227 c-214 325 -292 493 -346 745 -21 99 -36 322 -25 380 8 43 64 110 109 132 19 8 66 19 106 22 l71 7 0 -232 0 -231 150 0 150 0 2 928 c3 923 3 927 24 960 44 69 130 93 196 55z" fill="#490a3d"/>
<path d="M1358 4143 l-298 -298 -150 150 -150 150 -112 -113 -113 -112 263 -262 262 -263 412 412 413 413 -110 110 c-60 60 -112 110 -115 110 -3 0 -139 -134 -302 -297z" fill="#490a3d"/>
<path d="M3687 5104 c-405 -73 -751 -362 -902 -752 -102 -265 -102 -599 0 -864 153 -396 499 -681 914 -753 124 -22 331 -19 452 5 384 79 690 318 859 673 75 157 101 269 107 462 4 119 1 183 -10 250 -75 426 -374 781 -785 929 -130 46 -255 66 -414 65 -78 0 -178 -7 -221 -15z m382 -305 c347 -55 652 -349 726 -699 19 -92 19 -268 0 -360 -74 -350 -365 -631 -725 -700 -81 -16 -254 -13 -338 4 -348 74 -624 349 -697 696 -8 39 -15 120 -15 180 0 248 89 461 266 635 209 206 482 291 783 244z" fill="#490a3d"/>
<path d="M3495 4330 l-110 -110 150 -150 150 -150 -150 -150 -150 -150 113 -112 112 -113 150 150 150 150 150 -150 150 -150 112 113 113 112 -150 150 -150 150 150 150 150 150 -113 112 -112 113 -150 -150 -150 -150 -148 148 c-81 81 -150 147 -152 147 -3 0 -55 -50 -115 -110z" fill="#490a3d"/>
</g>
</svg>