<svg version="1.0" xmlns="http://www.w3.org/2000/svg" viewBox="0 0 512.000000 512.000000">
<g transform="translate(0.000000,512.000000) scale(0.100000,-0.100000)" stroke="none">
<path d="M3985 5103 c-336 -72 -632 -357 -707 -682 -16 -73 -41 -70 -57 7 -46 209 -221 387 -432 437 -137 32 -287 13 -413 -53 -69 -35 -169 -124 -213 -186 l-20 -29 -22 36 c-34 56 -144 151 -214 185 -100 50 -175 65 -291 59 -175 -8 -264 -52 -253 -124 12 -70 52 -85 148 -52 52 17 81 20 151 17 75 -4 96 -9 161 -41 130 -64 216 -182 237 -324 13 -93 13 -3733 0 -3828 -20 -139 -111 -263 -238 -326 -58 -28 -80 -34 -158 -37 -69 -3 -105 0 -145 13 -135 43 -244 153 -283 283 -14 50 -14 52 4 52 10 0 54 11 98 25 68 21 131 56 220 121 22 16 24 16 55 -13 45 -43 111 -74 171 -80 42 -4 56 -1 79 17 38 30 38 90 1 119 -15 12 -35 21 -46 21 -61 0 -128 63 -128 121 0 44 -35 79 -81 79 -36 0 -42 -5 -89 -65 -187 -237 -521 -258 -724 -46 -56 59 -109 154 -122 218 -6 31 -5 32 37 43 24 6 77 24 117 42 40 17 74 29 76 27 1 -2 14 -25 29 -50 56 -98 169 -172 288 -189 69 -10 99 -2 123 32 39 55 4 112 -75 122 -143 19 -232 114 -232 247 0 123 113 239 233 239 42 0 59 9 76 42 20 38 10 84 -22 105 -37 24 -140 11 -221 -26 -111 -52 -204 -172 -219 -283 -5 -36 -13 -49 -50 -77 -167 -128 -422 -103 -565 56 -84 93 -113 177 -107 307 3 76 9 101 35 156 18 36 47 80 66 98 l35 34 58 -30 c77 -38 114 -49 201 -62 109 -15 153 7 153 78 0 45 -34 67 -124 81 -103 15 -173 47 -241 112 -100 95 -140 192 -133 328 5 106 42 194 114 271 54 58 161 116 232 125 98 12 114 17 133 36 27 27 25 80 -4 107 -46 43 -200 23 -330 -42 l-68 -34 -39 52 c-71 94 -85 136 -85 262 0 107 1 112 38 186 45 92 112 157 207 202 59 28 74 30 170 31 94 0 111 -3 163 -27 32 -15 76 -41 97 -58 71 -56 150 -32 150 46 0 29 -7 44 -35 70 -46 43 -182 111 -241 120 l-46 7 6 36 c15 97 108 227 207 291 55 35 165 77 175 67 3 -3 12 -31 21 -64 8 -32 31 -88 50 -125 39 -75 139 -184 178 -194 58 -14 114 41 100 97 -3 14 -29 47 -56 74 -27 27 -59 63 -70 81 -63 103 -77 248 -34 369 14 39 25 79 25 90 -1 48 -59 81 -109 64 -34 -12 -64 -67 -88 -164 l-15 -62 -66 -13 c-221 -44 -431 -254 -474 -475 -7 -33 -13 -61 -14 -63 -1 -2 -30 -10 -64 -18 -83 -19 -190 -76 -256 -137 -120 -110 -184 -257 -184 -425 0 -152 39 -265 129 -380 23 -28 41 -53 41 -56 0 -2 -16 -27 -35 -56 -19 -29 -47 -90 -61 -136 -23 -74 -26 -95 -22 -196 5 -127 24 -194 84 -291 l36 -58 -45 -57 c-91 -117 -127 -221 -127 -372 0 -172 49 -291 169 -411 84 -84 161 -128 274 -155 61 -15 67 -19 67 -43 0 -38 52 -179 85 -231 41 -64 129 -154 194 -197 58 -39 199 -93 242 -93 24 0 28 -6 43 -67 27 -113 71 -190 155 -274 120 -119 239 -169 410 -169 170 0 289 48 407 165 39 38 77 81 85 94 l15 24 22 -35 c36 -58 145 -153 214 -187 91 -45 160 -61 267 -61 173 0 289 47 412 170 84 83 128 157 157 267 l17 67 55 12 c126 26 229 83 322 178 87 90 142 196 172 337 5 23 14 29 73 43 77 20 171 67 214 107 37 35 39 80 4 114 -32 33 -67 31 -129 -6 -141 -88 -316 -92 -452 -13 -56 33 -80 63 -87 107 -23 151 -178 294 -339 313 -79 9 -106 0 -124 -41 -26 -64 10 -107 100 -119 165 -21 261 -200 186 -346 -39 -75 -108 -121 -203 -135 -65 -10 -89 -31 -89 -78 0 -70 41 -92 139 -77 120 20 240 104 292 206 l21 40 58 -28 c31 -15 82 -34 112 -42 55 -14 55 -14 53 -50 -6 -94 -121 -246 -231 -304 -218 -116 -452 -63 -617 141 -42 52 -50 57 -85 57 -45 0 -80 -35 -80 -79 0 -58 -65 -121 -125 -121 -36 0 -75 -42 -75 -80 0 -42 39 -80 83 -80 59 0 132 28 180 70 25 22 48 40 52 40 4 0 25 -15 46 -34 54 -45 154 -94 239 -114 65 -16 69 -18 63 -42 -24 -108 -125 -231 -232 -282 -85 -41 -217 -51 -302 -23 -116 37 -209 120 -262 233 l-32 67 0 1965 0 1965 32 68 c42 89 121 168 210 210 63 30 75 32 174 32 101 0 108 -1 181 -38 267 -132 323 -467 113 -681 -29 -30 -56 -64 -60 -75 -8 -28 14 -72 46 -90 39 -22 76 -7 138 57 73 75 131 185 155 295 11 49 26 29 26 -35 0 -84 31 -228 67 -314 l29 -69 -48 -205 c-26 -113 -47 -219 -48 -236 0 -39 36 -74 76 -74 16 1 121 22 234 49 l205 47 51 -23 c62 -28 182 -60 264 -69 l61 -7 -6 -46 c-13 -92 -45 -168 -101 -237 l-34 -42 -74 38 c-83 41 -160 60 -247 60 -50 0 -60 -3 -78 -26 -51 -65 -2 -134 94 -134 48 0 135 -28 187 -61 233 -149 270 -464 76 -657 -69 -69 -151 -109 -253 -123 -110 -16 -145 -54 -114 -123 17 -37 58 -47 142 -36 85 11 88 12 191 58 l78 36 29 -34 c76 -91 117 -229 100 -337 -14 -91 10 -133 77 -133 45 0 72 36 83 116 23 158 -27 324 -138 460 l-33 41 35 59 c74 122 103 256 85 387 -14 96 -33 152 -81 231 l-39 66 44 54 c75 93 117 197 132 334 6 59 8 62 34 62 72 0 261 71 365 136 68 44 84 96 40 139 -35 36 -70 31 -161 -20 -220 -126 -481 -139 -710 -35 -37 16 -76 30 -87 30 -10 0 -89 -16 -174 -36 -85 -20 -157 -34 -160 -31 -3 3 11 75 31 160 20 85 36 164 36 174 0 11 -14 50 -30 87 -86 190 -93 418 -17 606 42 104 89 172 183 267 80 80 103 97 195 141 57 28 134 58 171 67 86 20 255 21 342 1 265 -62 479 -255 569 -514 26 -73 31 -106 35 -209 5 -151 -12 -241 -74 -372 -24 -51 -44 -107 -44 -122 0 -44 33 -71 83 -67 38 3 45 8 75 53 114 174 155 472 97 701 -90 355 -383 630 -739 693 -85 15 -288 12 -371 -6z"/>
<path d="M4076 4784 c-128 -41 -218 -142 -246 -277 -20 -97 6 -147 75 -147 36 0 75 35 75 66 0 46 31 121 62 151 89 86 214 82 295 -10 108 -123 32 -309 -136 -331 -89 -12 -91 -17 -91 -229 0 -179 1 -184 23 -205 13 -12 35 -22 49 -22 73 0 88 33 88 190 0 104 2 120 16 120 31 0 136 64 171 104 160 184 103 466 -116 573 -68 34 -189 41 -265 17z"/>
<path d="M1761 4250 c-112 -23 -202 -120 -217 -235 -13 -89 39 -141 111 -111 34 14 39 23 50 88 8 53 54 95 112 104 57 8 83 33 83 78 0 66 -50 94 -139 76z"/>
<path d="M2435 4249 c-31 -18 -45 -40 -45 -74 0 -40 32 -70 85 -80 22 -4 48 -11 58 -17 25 -13 57 -68 57 -98 0 -32 25 -69 56 -80 29 -11 81 5 94 30 31 57 -15 199 -83 256 -62 53 -180 86 -222 63z"/>
<path d="M4143 3695 c-38 -26 -37 -92 1 -117 22 -15 76 -8 96 12 60 60 -27 154 -97 105z"/>
<path d="M1527 3529 c-164 -39 -294 -190 -305 -355 -4 -63 -2 -74 17 -93 32 -32 93 -29 120 5 12 15 21 40 21 57 0 117 98 219 223 234 90 11 128 83 72 138 -26 27 -74 31 -148 14z"/>
<path d="M2615 3515 c-56 -55 -18 -127 72 -138 62 -7 106 -28 151 -71 45 -41 61 -76 73 -149 6 -34 17 -70 26 -79 23 -26 87 -24 114 3 19 19 21 30 17 93 -11 165 -131 308 -294 351 -86 22 -130 20 -159 -10z"/>
<path d="M2462 2815 c-51 -64 -19 -120 77 -136 77 -12 105 -26 152 -76 48 -50 59 -73 69 -147 7 -43 15 -66 31 -78 31 -26 81 -23 109 7 20 22 22 31 18 94 -14 188 -173 347 -362 359 -70 4 -73 3 -94 -23z"/>
<path d="M831 2715 c-23 -21 -55 -67 -73 -104 -31 -62 -33 -73 -33 -171 0 -97 2 -110 31 -170 61 -127 126 -168 188 -119 37 29 36 79 -5 131 -78 98 -79 207 -3 307 55 71 40 143 -32 157 -27 5 -38 0 -73 -31z"/>
<path d="M3363 2740 c-51 -21 -57 -88 -13 -142 82 -99 81 -216 -4 -327 -33 -44 -33 -84 -1 -116 56 -56 122 -19 182 103 37 73 38 80 38 181 0 95 -3 112 -27 164 -42 89 -96 147 -138 146 -8 0 -25 -4 -37 -9z"/>
<path d="M1394 2495 c-25 -26 -26 -30 -21 -98 16 -190 175 -345 363 -355 63 -4 75 -1 93 17 22 22 28 70 11 101 -11 20 -59 40 -99 40 -100 1 -211 125 -211 236 0 43 -27 73 -72 80 -31 5 -41 2 -64 -21z"/>
</g>
</svg>