<svg version="1.0" xmlns="http://www.w3.org/2000/svg" width="512.000000pt" height="512.000000pt" viewBox="0 0 512.000000 512.000000" preserveAspectRatio="xMidYMid meet">

<g transform="translate(0.000000,512.000000) scale(0.100000,-0.100000)" stroke="none">
<path d="M0 2860 l0 -1810 980 0 980 0 0 -150 0 -150 -300 0 -300 0 0 -150 0 -150 1200 0 1200 0 0 150 0 150 -300 0 -300 0 0 150 0 150 980 0 980 0 0 1810 0 1810 -2560 0 -2560 0 0 -1810z m4820 305 l0 -1205 -2260 0 -2260 0 0 1205 0 1205 2260 0 2260 0 0 -1205z m0 -1655 l0 -150 -977 -2 -978 -3 -3 -302 -2 -303 -300 0 -300 0 -2 303 -3 302 -977 3 -978 2 0 150 0 150 2260 0 2260 0 0 -150z"/>
<path d="M2410 3915 l0 -155 150 0 150 0 0 155 0 155 -150 0 -150 0 0 -155z"/>
<path d="M3310 3915 l-105 -105 160 -160 160 -160 -160 -160 -160 -160 108 -107 107 -108 160 160 160 160 160 -160 160 -160 107 108 108 107 -160 160 -160 160 160 160 160 160 -108 107 -107 108 -160 -160 -160 -160 -158 158 c-86 86 -160 157 -162 157 -3 0 -52 -47 -110 -105z"/>
<path d="M1450 3625 l-245 -245 -97 97 -98 98 -108 -108 -107 -107 205 -205 205 -205 355 355 355 355 -105 105 c-58 58 -107 105 -110 105 -3 0 -115 -110 -250 -245z"/>
<path d="M2410 3310 l0 -150 150 0 150 0 0 150 0 150 -150 0 -150 0 0 -150z"/>
<path d="M2410 2710 l0 -150 -905 0 -905 0 0 -150 0 -150 1960 0 1960 0 0 150 0 150 -905 0 -905 0 0 150 0 150 -150 0 -150 0 0 -150z"/>
</g>
</svg>