<svg version="1.1" xmlns="http://www.w3.org/2000/svg" xmlns:xlink="http://www.w3.org/1999/xlink" width="24px" height="24px" viewBox="0,0,256,256"><defs><linearGradient x1="1.48" y1="7.786" x2="22.496" y2="17.586" gradientUnits="userSpaceOnUse" id="color-1"><stop offset="0" stop-color="#ffffff" stop-opacity="0.2"></stop><stop offset="1" stop-color="#ffffff" stop-opacity="0"></stop></linearGradient></defs><g fill="none" fill-rule="nonzero" stroke="none" stroke-width="1" stroke-linecap="butt" stroke-linejoin="miter" stroke-miterlimit="10" stroke-dasharray="" stroke-dashoffset="0" font-family="none" font-weight="none" font-size="none" text-anchor="none" style="mix-blend-mode: normal"><g transform="scale(10.66667,10.66667)"><path d="M20.04711,13.80664l-3.65918,-2.39209c-0.6709,-0.43945 -1.50586,-0.58594 -2.3877,-0.27441v-4.14014c0,-0.29645 -0.06897,-0.57556 -0.18518,-0.8288l0.86291,-0.73956c0.27832,-0.23779 0.38867,-0.61865 0.28125,-0.97363c-0.1084,-0.35107 -0.41504,-0.60449 -0.78027,-0.64502l-3.24414,-0.35986l-1.07031,-2.85352c-0.13379,-0.3584 -0.48145,-0.59961 -0.86426,-0.59961c-0.38281,0 -0.73047,0.24121 -0.86328,0.59863l-1.07129,2.85449l-3.24512,0.35986c-0.36426,0.04053 -0.6709,0.29395 -0.7793,0.64551c-0.10937,0.35205 0.00195,0.73389 0.28125,0.97314l2.54102,2.17822l-0.72656,3.2666c-0.08203,0.37012 0.0752,0.75977 0.39355,0.97119c0.15137,0.09961 0.32715,0.15234 0.50781,0.15234c0.19434,0 0.38086,-0.06006 0.53711,-0.17236l2.4248,-1.73193l1,0.71448v6.58435l-2.87012,-1.40723c-0.25098,-0.12256 -0.53027,-0.1875 -0.80957,-0.1875c-1.00391,0 -1.82031,0.80518 -1.82031,1.79443v0.30566c0,0.14014 0.05859,0.27393 0.16211,0.36865l4.70801,4.30908c1.00195,0.91748 2.30859,1.42236 3.67773,1.42236h3.78125c2.2998,0 4.1709,-1.83936 4.1709,-4.1001v-4.34375c0,-0.70605 -0.35645,-1.35986 -0.95312,-1.74951z" fill="#303c42"></path><path d="M9.29125,9.07471c-0.17383,-0.12402 -0.4082,-0.12402 -0.58203,0l-2.55664,1.84277l0.75293,-3.38379c0.04004,-0.18018 -0.02246,-0.36768 -0.16309,-0.48828l-2.63477,-2.25781l3.37305,-0.37451c0.1875,-0.021 0.34766,-0.14502 0.41309,-0.32129l1.10645,-2.94824l1.10645,2.94824c0.06543,0.17627 0.22559,0.30029 0.41309,0.32129l3.37305,0.37451l-0.7099,0.60834c-0.33221,-0.24567 -0.73883,-0.39594 -1.18268,-0.39594c-1.10254,0 -2,0.89697 -2,2v2.58105z" fill="#ffca28"></path><path d="M20.00024,19.8999c0,1.70947 -1.42285,3.1001 -3.1709,3.1001h-3.78125c-1.11914,0 -2.18555,-0.41211 -3.00195,-1.15967l-4.5459,-4.16064v-0.08545c0,-0.56055 0.66504,-0.96338 1.19043,-0.70898l3.58984,1.76025c0.1543,0.07617 0.33594,0.06738 0.48438,-0.02441c0.14648,-0.09131 0.23535,-0.25195 0.23535,-0.42432v-11.19678c0,-0.55127 0.44824,-1 1,-1c0.55176,0 1,0.44873 1,1v5c0,0.18359 0.10059,0.35254 0.2627,0.43994c0.16016,0.08643 0.35742,0.07861 0.51074,-0.02148l0.37207,-0.24365c0.19043,-0.12402 0.43555,-0.1748 0.84766,-0.1748c0.30273,0 0.5957,0.08691 0.84766,0.25146l3.65918,2.39209v0.00049c0.31348,0.2041 0.5,0.54492 0.5,0.91211z" fill="#ffffff"></path><path d="M19.50024,14.64404v4.25586c0,1.70947 -1.42285,3.1001 -3.1709,3.1001h-3.78125c-1.11914,0 -2.18555,-0.41211 -3.00195,-1.15967l-3.94299,-3.60889c-0.06348,0.10815 -0.10291,0.23053 -0.10291,0.36279v0.08545l4.5459,4.16064c0.81641,0.74756 1.88281,1.15967 3.00195,1.15967h3.78125c1.74805,0 3.1709,-1.39062 3.1709,-3.1001v-4.34375c0,-0.36719 -0.18652,-0.70801 -0.5,-0.91211z" fill="#000000" opacity="0.1"></path><path d="M20.04711,13.80664l-3.65918,-2.39209c-0.6709,-0.43945 -1.50586,-0.58594 -2.3877,-0.27441v-4.14014c0,-0.29645 -0.06897,-0.57556 -0.18518,-0.8288l0.86291,-0.73956c0.27832,-0.23779 0.38867,-0.61865 0.28125,-0.97363c-0.1084,-0.35107 -0.41504,-0.60449 -0.78027,-0.64502l-3.24414,-0.35986l-1.07031,-2.85352c-0.13379,-0.3584 -0.48145,-0.59961 -0.86426,-0.59961c-0.38281,0 -0.73047,0.24121 -0.86328,0.59863l-1.07129,2.85449l-3.24512,0.35986c-0.36426,0.04053 -0.6709,0.29395 -0.7793,0.64551c-0.10937,0.35205 0.00195,0.73389 0.28125,0.97314l2.54102,2.17822l-0.72656,3.2666c-0.08203,0.37012 0.0752,0.75977 0.39355,0.97119c0.15137,0.09961 0.32715,0.15234 0.50781,0.15234c0.19434,0 0.38086,-0.06006 0.53711,-0.17236l2.4248,-1.73193l1,0.71448v6.58435l-2.87012,-1.40723c-0.25098,-0.12256 -0.53027,-0.1875 -0.80957,-0.1875c-1.00391,0 -1.82031,0.80518 -1.82031,1.79443v0.30566c0,0.14014 0.05859,0.27393 0.16211,0.36865l4.70801,4.30908c1.00195,0.91748 2.30859,1.42236 3.67773,1.42236h3.78125c2.2998,0 4.1709,-1.83936 4.1709,-4.1001v-4.34375c0,-0.70605 -0.35645,-1.35986 -0.95312,-1.74951z" fill="url(#color-1)"></path></g></g></svg>