<svg xmlns="http://www.w3.org/2000/svg" viewBox="0 0 528 528.304"><path d="M516.872 477.64L361.736 322.504c25.52-33.728 40.68-75.736 40.68-121.296C402.416 90.08 312.336 0 201.208 0S0 90.08 0 201.208s90.08 201.208 201.208 201.208c45.4 0 87.28-15.048 120.944-40.408l155.176 155.168c13.12 13.12 32.592 14.888 43.512 3.976 10.928-10.912 9.144-30.4-3.968-43.512zM201.208 352.552c-83.568 0-151.328-67.768-151.328-151.336 0-83.584 67.76-151.336 151.328-151.336s151.336 67.76 151.336 151.336c-.008 83.568-67.768 151.336-151.336 151.336z"/></svg>