<svg viewBox="0 0 50 50" xmlns="http://www.w3.org/2000/svg">
<path d="M31.2628 32.8921H29.7353V34.4196H31.2628V32.8921Z" />
<path d="M34.5214 32.8921H32.8921V34.4196H34.5214V32.8921Z" />
<path d="M37.4745 32.8921H35.8452V34.4196H37.4745V32.8921Z" />
<path d="M34.7848 8.22539L29.295 2.73555L26.1182 5.86758C24.9986 5.22236 23.8409 4.7457 22.6069 4.42197V0H14.8677V4.43037C13.6679 4.76211 12.5174 5.24277 11.4339 5.86504L8.31397 2.73018L2.82861 8.22432L5.96602 11.3812C5.35801 12.4499 4.86982 13.6366 4.53184 14.8677H0V22.607H4.5248C4.84199 23.802 5.31748 24.9418 5.9666 26.0637L2.8332 29.1931L8.32744 34.6851L11.4612 31.5503C12.7321 32.2798 14.0944 32.8125 15.5192 33.1363L15.8577 31.6468C14.4037 31.3163 13.0217 30.7427 11.7502 29.9418L11.2342 29.6168L8.32695 32.5248L4.99434 29.1936L7.90107 26.2904L7.57598 25.7741C6.72979 24.4308 6.18838 23.1299 5.87187 21.6805L5.74072 21.0797H1.52754V16.3954H5.73213L5.86963 15.8049C6.21533 14.3202 6.8042 12.8908 7.57236 11.6711L7.89639 11.1568L4.98467 8.22666L8.31221 4.89365L11.2045 7.7998L11.7217 7.47402C12.967 6.68975 14.3789 6.09961 15.8047 5.76768L16.3952 5.63018V1.52754H21.0795V5.63906L21.6803 5.77022C23.1622 6.09365 24.5179 6.65107 25.8249 7.47422L26.337 7.79668L29.2874 4.88809L32.6247 8.22539L29.7177 11.1324L30.0427 11.6483C30.844 12.9207 31.4179 14.3027 31.748 15.7559L33.2376 15.4174C32.9139 13.9934 32.3811 12.631 31.6511 11.3594L34.7848 8.22539Z" />
<path d="M19.552 17.9227H17.9227V19.4502H19.552V17.9227Z" />
<path d="M22.7087 17.9227H21.0794V19.4502H22.7087V17.9227Z" />
<path d="M16.4969 17.9227H14.8676V19.4502H16.4969V17.9227Z" />
<path d="M25.6251 10.1925C23.7009 8.65029 21.2803 7.80117 18.8094 7.80117C12.7956 7.80117 7.90303 12.6937 7.90303 18.7076C7.90303 21.1791 8.75283 23.6002 10.2957 25.5247C11.8149 27.4198 13.9465 28.7688 16.2977 29.323L16.648 27.8363C14.6271 27.3599 12.7944 26.1997 11.4875 24.5693C10.1418 22.8908 9.43057 20.8639 9.43057 18.7076C9.43057 13.536 13.6378 9.32871 18.8094 9.32871C20.9649 9.32871 22.9914 10.0396 24.6697 11.3845C26.2998 12.6908 27.4603 14.5227 27.9374 16.5427L29.4239 16.1916C28.8689 13.8414 27.5197 11.7109 25.6251 10.1925Z" />
<path d="M18.8167 10.1566C14.0936 10.1566 10.2585 13.9844 10.2585 18.7075C10.2585 23.4307 14.053 27.2733 18.8392 27.2733V25.7458C14.9695 25.7458 11.786 22.5959 11.786 18.7149C11.786 14.8341 14.9284 11.6841 18.8094 11.6841C22.6902 11.6841 25.8477 14.8676 25.8477 18.7372H27.3752C27.3751 13.9511 23.5399 10.1566 18.8167 10.1566Z" />
<path d="M33.6331 24.1854C28.4798 24.1854 24.2872 28.3779 24.2872 33.5312C24.2872 38.6846 28.4798 42.8771 33.6331 42.8771C38.7864 42.8771 42.979 38.6846 42.979 33.5312C42.9791 28.3779 38.7865 24.1854 33.6331 24.1854ZM33.6331 41.3498C29.322 41.3498 25.8146 37.8425 25.8146 33.5313C25.8146 29.2202 29.322 25.7129 33.6331 25.7129C37.9442 25.7129 41.4516 29.2202 41.4516 33.5313C41.4517 37.8424 37.9442 41.3498 33.6331 41.3498Z" />
<path d="M33.6331 26.526C29.7703 26.526 26.6277 29.6686 26.6277 33.5312C26.6277 37.3939 29.7703 40.5365 33.6331 40.5365C37.4959 40.5365 40.6385 37.3939 40.6385 33.5312C40.6385 29.6686 37.4959 26.526 33.6331 26.526ZM33.6331 39.0092C30.6126 39.0092 28.1552 36.5519 28.1552 33.5313C28.1552 30.5108 30.6126 28.0535 33.6331 28.0535C36.6536 28.0535 39.111 30.5108 39.111 33.5313C39.111 36.5519 36.6537 39.0092 33.6331 39.0092Z" />
<path d="M45.469 29.7353C45.2634 29.1008 45.0197 28.4974 44.7488 27.9506L47.9512 24.7251L42.4676 19.2278L39.1928 22.4212C38.6001 22.1203 37.9979 21.8761 37.3729 21.6832V17.2097H29.7354V21.6968C29.1331 21.8952 28.5534 22.1348 28.0021 22.4127L24.803 19.2103L19.3147 24.7006L22.5176 27.9488C22.2468 28.4953 22.0031 29.0992 21.7971 29.7352H17.2098V37.3727H21.7857C21.9722 37.9724 22.2076 38.5432 22.5134 39.1374L19.314 42.348L24.8063 47.8471L28.002 44.6473C28.5557 44.927 29.1354 45.1673 29.7354 45.3655V50H37.3729V45.3798C38.0013 45.1869 38.6021 44.9448 39.189 44.6483L42.4262 47.8477L47.9342 42.3621L44.7437 39.1397C45.0558 38.5365 45.2939 37.965 45.4799 37.3729H50V29.7354L45.469 29.7353ZM44.3079 35.8453L44.1619 36.4215C43.947 37.2704 43.6405 38.0106 43.1375 38.897L42.8519 39.4001L45.777 42.3545L42.4219 45.6959L39.4506 42.7595L38.9479 43.0448C38.1328 43.5074 37.33 43.8302 36.4215 44.0603L35.8453 44.2061V48.4726H31.2627V44.2222L30.7059 44.0654C29.8322 43.8195 29.0024 43.4752 28.2392 43.042L27.733 42.7547L24.8061 45.6855L21.4713 42.3469L24.4062 39.4018L24.1196 38.8969C23.6346 38.0427 23.3215 37.2794 23.1042 36.4215L22.9583 35.8452H18.7373V31.2627H22.9424L23.0991 30.7059C23.3625 29.7702 23.7151 28.8996 24.1188 28.1883L24.4039 27.6861L21.4673 24.7078L24.8027 21.3712L27.7333 24.305L28.2395 24.0177C28.9963 23.5882 29.8261 23.2447 30.7062 22.9971L31.263 22.8403V18.7373H35.8455V22.8564L36.4217 23.0024C37.3185 23.2295 38.1212 23.554 38.9481 24.0234L39.4474 24.3068L42.4529 21.376L45.7964 24.7277L42.8608 27.6846L43.1469 28.1885C43.5519 28.902 43.9047 29.7725 44.1676 30.7061L44.3243 31.2629H48.4727V35.8453H44.3079Z" />
</svg>
